<?xml version="1.0" encoding="UTF-8" standalone="no"?>
<!-- Created with Inkscape (http://www.inkscape.org/) -->
<svg
   xmlns:svg="http://www.w3.org/2000/svg"
   xmlns="http://www.w3.org/2000/svg"
   version="1.0"
   width="468.01999"
   height="536.09299"
   id="svg2">
  <defs
     id="defs4">
    <marker
       markerUnits="strokeWidth"
       refX="0"
       refY="5"
       markerWidth="4"
       markerHeight="3"
       orient="auto"
       viewBox="0 0 10 10"
       id="ArrowEnd">
      <path
         d="M 0,0 L 10,5 L 0,10 L 0,0 z"
         id="path7" />
    </marker>
    <marker
       markerUnits="strokeWidth"
       refX="10"
       refY="5"
       markerWidth="4"
       markerHeight="3"
       orient="auto"
       viewBox="0 0 10 10"
       id="ArrowStart">
      <path
         d="M 10,0 L 0,5 L 10,10 L 10,0 z"
         id="path10" />
    </marker>
  </defs>
  <g
     id="g12"
     transform="translate(20.0,20.0)">
    <path
       d="M 1.16667,218.53 L 1.16667,218.866 L 1.50267,219.202 L 1.50267,219.538 L 1.83867,219.874 L 1.83867,220.21 L 2.17467,220.546 L 2.17467,220.881 L 2.51068,220.881 L 2.51068,221.217 L 2.84668,221.553 L 2.84668,221.889 L 3.18268,222.225 L 3.18268,222.561 L 3.51767,222.897 L 3.51767,223.237 L 3.85367,223.573 L 3.85367,223.909 L 4.18967,224.245 L 4.18967,224.581 L 4.52568,224.581 L 4.86168,224.917 L 4.86168,225.253 L 5.19768,225.589 L 5.19768,225.924 L 5.53368,226.26 L 5.53368,226.596 L 5.87367,226.932 L 5.87367,227.268 L 6.20967,227.268 L 6.20967,227.604 L 6.54567,227.94 L 6.54567,228.276 L 6.88167,228.612 L 7.21767,228.948 L 7.21767,229.284 L 7.55368,229.62 L 7.55368,229.62 L 7.88968,229.956 L 7.88968,230.292 L 8.22568,230.628 L 8.22568,230.964 L 8.56067,231.299 L 8.89667,231.299 L 8.89667,231.635 L 9.23268,231.971 L 9.23268,232.307 L 9.56868,232.643 L 9.90468,232.979 L 9.90468,232.979 L 10.2407,233.315 L 10.2407,233.651 L 10.5767,233.987 L 10.5767,234.323 L 10.9127,234.659 L 11.2487,234.659 L 11.2487,234.995 L 11.5847,235.331 L 11.5847,235.667 L 11.9207,236.003 L 11.9207,236.003 L 12.2567,236.339 L 12.5927,236.674 L 12.5927,237.01 L 12.9287,237.346 L 12.9287,237.346 L 13.2647,237.682 L 13.6007,238.018 L 13.6007,238.354 L 13.9357,238.69 L 13.9357,238.69 L 14.2717,239.026 L 14.6077,239.362 L 14.6077,239.698 L 14.9437,239.698 L 14.9437,240.034 L 15.2797,240.37 L 15.6157,240.706 L 15.6157,240.706 L 15.9517,241.042 L 16.2877,241.378 L 16.2877,241.714 L 16.6237,241.714 L 16.6237,242.049 L 16.9597,242.385 L 17.2957,242.721 L 17.2957,242.721 L 17.6317,243.057 L 17.9677,243.393 L 17.9677,243.729 L 18.3037,243.729 L 18.3037,244.065 L 18.6397,244.405 L 18.9757,244.741 L 18.9757,244.741 L 19.3107,245.077 L 19.6467,245.413 L 19.6467,245.413 L 19.9827,245.749 L 20.3187,246.085 L 20.3187,246.421 L 20.6547,246.421 L 20.6547,246.757 L 20.9907,247.092 L 21.3267,247.092 L 21.3267,247.428 L 21.6627,247.764 L 21.9987,247.764 L 21.9987,248.1 L 22.3347,248.436 L 22.6707,248.436 L 22.6707,248.772 L 23.0067,249.108 L 23.3427,249.108 L 23.3427,249.444 L 23.6787,249.78 L 24.0147,249.78 L 24.0147,250.116 L 24.3497,250.452 L 24.6857,250.452 L 24.6857,250.788 L 25.0217,251.124 L 25.3577,251.124 L 25.3577,251.46 L 25.6937,251.796 L 26.0297,251.796 L 26.3657,252.131 L 26.3657,252.467 L 26.7017,252.467 L 27.0417,252.803 L 27.0417,253.139 L 27.3777,253.139 L 27.7137,253.475 L 27.7137,253.475 L 28.0497,253.811 L 28.3857,254.147 L 28.3857,254.147 L 28.7217,254.483 L 29.0577,254.483 L 29.0577,254.819 L 29.3927,255.155 L 29.7287,255.155 L 30.0647,255.491 L 30.0647,255.491 L 30.4007,255.827 L 30.7367,256.163 L 30.7367,256.163 L 31.0727,256.499 L 31.4087,256.499 L 31.7447,256.835 L 31.7447,257.171 L 32.0807,257.171 L 32.4167,257.507 L 32.4167,257.507 L 32.7527,257.842 L 33.0887,257.842 L 33.4247,258.178 L 33.4247,258.514 L 33.7607,258.514 L 34.0967,258.85 L 34.4327,258.85 L 34.4327,259.186 L 34.7677,259.186 L 35.1037,259.522 L 35.4397,259.522 L 35.4397,259.858 L 35.7757,260.194 L 36.1117,260.194 L 36.4477,260.53 L 36.4477,260.53 L 36.7837,260.866 L 37.1197,260.866 L 37.1197,261.202 L 37.4557,261.202 L 37.7917,261.538 L 38.1277,261.538 L 38.1277,261.874 L 38.4637,261.874 L 38.7997,262.21 L 39.1357,262.21 L 39.4717,262.546 L 39.4717,262.546 L 39.8077,262.881 L 40.1427,262.881 L 40.4787,263.217 L 40.4787,263.217 L 40.8147,263.553 L 41.1507,263.553 L 41.4867,263.889 L 41.4867,263.889 L 41.8227,264.225 L 42.1587,264.225 L 42.4947,264.561 L 42.8307,264.561 L 42.8307,264.897 L 43.1667,264.897 L 43.5027,265.237 L 43.8387,265.237 L 43.8387,265.573 L 44.1747,265.573 L 44.5107,265.573 L 44.8467,265.909 L 45.1827,265.909 L 45.1827,266.245 L 45.5177,266.245 L 45.8537,266.581 L 46.1897,266.581 L 46.5257,266.917 L 46.5257,266.917 L 46.8617,266.917 L 47.1977,267.253 L 47.5337,267.253 L 47.8737,267.589 L 47.8737,267.589 L 48.2097,267.924 L 48.5457,267.924 L 48.8817,267.924 L 49.2177,268.26 L 49.5537,268.26 L 49.5537,268.596 L 49.8897,268.596 L 50.2257,268.596 L 50.5607,268.932 L 50.8967,268.932 L 50.8967,269.268 L 51.2327,269.268 L 51.5687,269.604 L 51.9047,269.604 L 52.2407,269.604 L 52.5767,269.94 L 52.5767,269.94 L 52.9127,269.94 L 53.2487,270.276 L 53.5847,270.276 L 53.9207,270.612 L 54.2567,270.612 L 54.2567,270.612 L 54.5927,270.948 L 54.9287,270.948 L 55.2647,270.948 L 55.6007,271.284 L 55.9357,271.284 L 55.9357,271.284 L 56.2717,271.62 L 56.6077,271.62 L 56.9437,271.62 L 57.2797,271.956 L 57.6157,271.956 L 57.9517,272.292 L 57.9517,272.292 L 58.2877,272.292 L 58.6237,272.292 L 58.9597,272.628 L 59.2957,272.628 L 59.6317,272.964 L 59.9677,272.964 L 59.9677,272.964 L 60.3037,272.964 L 60.6397,273.299 L 60.9757,273.299 L 61.3107,273.299 L 61.6467,273.635 L 61.9827,273.635 L 62.3187,273.635 L 62.3187,273.971 L 62.6547,273.971 L 62.9907,273.971 L 63.3267,273.971 L 63.6627,274.307 L 63.9987,274.307 L 64.3347,274.307 L 64.6707,274.643 L 65.0067,274.643 L 65.0067,274.643 L 65.3427,274.643 L 65.6787,274.979 L 66.0147,274.979 L 66.3497,274.979 L 66.6857,275.315 L 67.0217,275.315 L 67.3577,275.315 L 67.6937,275.315 L 68.0297,275.651 L 68.0297,275.651 L 68.3657,275.651 L 68.7017,275.651 L 69.0417,275.987 L 69.3777,275.987 L 69.7137,275.987 L 70.0497,275.987 L 70.3857,276.323 L 70.7217,276.323 L 71.0577,276.323 L 71.3927,276.323 L 71.7287,276.323 L 71.7287,276.659 L 72.0647,276.659 L 72.4007,276.659 L 72.7367,276.659 L 73.0727,276.659 L 73.4087,276.995"
       id="path14"
       style="fill:none;stroke:#000000;stroke-width:2.33332992;stroke-linejoin:round" />
    <path
       d="M 73.4087,276.995 L 73.7447,276.995 L 74.0807,276.995 L 74.4167,276.995 L 74.7527,277.331 L 75.0887,277.331 L 75.4247,277.331 L 75.7607,277.331 L 76.0967,277.331 L 76.4327,277.667 L 76.4327,277.667 L 76.7677,277.667 L 77.1037,277.667 L 77.4397,277.667 L 77.7757,277.667 L 78.1117,278.003 L 78.4477,278.003 L 78.7837,278.003 L 79.1197,278.003 L 79.4557,278.003 L 79.7917,278.003 L 80.1277,278.339 L 80.4637,278.339 L 80.7997,278.339 L 81.1357,278.339 L 81.4717,278.339 L 81.8077,278.339 L 82.1427,278.339 L 82.4787,278.674 L 82.8147,278.674 L 83.1507,278.674 L 83.4867,278.674 L 83.8227,278.674 L 84.1587,278.674 L 84.4947,278.674 L 84.8307,279.01 L 85.1667,279.01 L 85.5027,279.01 L 85.8387,279.01 L 86.1747,279.01 L 86.5107,279.01 L 86.8467,279.01 L 87.1827,279.01 L 87.5177,279.01 L 87.8537,279.346 L 87.8537,279.346 L 88.1897,279.346 L 88.8617,279.346 L 89.1977,279.346 L 89.1977,279.346 L 89.8737,279.346 L 90.2097,279.346 L 90.5457,279.346 L 90.5457,279.346 L 91.2177,279.346 L 91.5537,279.346 L 91.8897,279.682 L 92.2257,279.682 L 92.5607,279.682 L 92.8967,279.682 L 93.2327,279.682 L 93.5687,279.682 L 93.9047,279.682 L 94.2407,279.682 L 94.5767,279.682 L 94.9127,279.682 L 95.2487,279.682 L 95.5847,279.682 L 95.9207,279.682 L 96.2567,279.682 L 96.5927,279.682 L 96.9287,279.682 L 97.2647,279.682 L 97.5997,279.682 L 97.9357,279.682 L 98.2717,279.682 L 98.6077,280.018 L 98.9437,280.018 L 99.2797,280.018 L 99.6157,280.018 L 99.9517,280.018 L 100.288,280.018 L 100.624,280.018 L 100.96,280.018 L 101.296,280.018 L 101.632,280.018 L 102.304,280.018 L 102.64,280.018 L 102.976,280.018 L 103.311,280.018 L 103.647,280.018 L 103.983,280.018 L 104.319,280.018 L 104.655,280.018 L 104.991,279.682 L 105.327,279.682 L 105.663,279.682 L 105.999,279.682 L 106.335,279.682 L 106.671,279.682 L 107.007,279.682 M 307.265,218.53 L 307.6,218.866 L 307.6,219.202 L 307.936,219.538 L 307.936,219.874 L 308.272,220.21 L 308.272,220.546 L 308.608,220.881 L 308.608,220.881 L 308.944,221.217 L 308.944,221.553 L 309.28,221.889 L 309.28,222.225 L 309.616,222.561 L 309.952,222.897 L 309.952,223.237 L 310.288,223.573 L 310.288,223.909 L 310.624,224.245 L 310.624,224.581 L 310.96,224.581 L 310.96,224.917 L 311.296,225.253 L 311.296,225.589 L 311.632,225.924 L 311.632,226.26 L 311.968,226.596 L 311.968,226.932 L 312.304,227.268 L 312.64,227.268 L 312.64,227.604 L 312.976,227.94 L 312.976,228.276 L 313.311,228.612 L 313.311,228.948 L 313.647,229.284 L 313.647,229.62 L 313.983,229.62 L 314.319,229.956 L 314.319,230.292 L 314.655,230.628 L 314.655,230.964 L 314.991,231.299 L 314.991,231.299 L 315.327,231.635 L 315.327,231.971 L 315.663,232.307 L 315.999,232.643 L 315.999,232.979 L 316.335,232.979 L 316.335,233.315 L 316.671,233.651 L 316.671,233.987 L 317.007,234.323 L 317.343,234.659 L 317.343,234.659 L 317.679,234.995 L 317.679,235.331 L 318.015,235.667 L 318.35,236.003 L 318.35,236.003 L 318.686,236.339 L 318.686,236.674 L 319.022,237.01 L 319.358,237.346 L 319.358,237.346 L 319.694,237.682 L 319.694,238.018 L 320.03,238.354 L 320.366,238.69 L 320.366,238.69 L 320.702,239.026 L 320.702,239.362 L 321.042,239.698 L 321.378,239.698 L 321.378,240.034 L 321.714,240.37 L 321.714,240.706 L 322.05,240.706 L 322.386,241.042 L 322.386,241.378 L 322.722,241.714 L 323.058,241.714 L 323.058,242.049 L 323.393,242.385 L 323.393,242.721 L 323.729,242.721 L 324.065,243.057 L 324.065,243.393 L 324.401,243.729 L 324.737,243.729 L 324.737,244.065 L 325.073,244.405 L 325.073,244.741 L 325.409,244.741 L 325.745,245.077 L 325.745,245.413 L 326.081,245.413 L 326.417,245.749 L 326.417,246.085 L 326.753,246.421 L 327.089,246.421 L 327.089,246.757 L 327.425,247.092 L 327.761,247.092 L 327.761,247.428 L 328.097,247.764 L 328.097,247.764 L 328.433,248.1 L 328.768,248.436 L 328.768,248.436 L 329.104,248.772 L 329.44,249.108 L 329.44,249.108 L 329.776,249.444 L 330.112,249.78 L 330.112,249.78 L 330.448,250.116 L 330.784,250.452 L 330.784,250.452 L 331.12,250.788 L 331.456,251.124 L 331.792,251.124 L 331.792,251.46 L 332.128,251.796 L 332.464,251.796 L 332.464,252.131 L 332.8,252.467 L 333.136,252.467 L 333.136,252.803 L 333.472,253.139 L 333.808,253.139 L 333.808,253.475 L 334.143,253.475 L 334.479,253.811 L 334.479,254.147 L 334.815,254.147 L 335.151,254.483 L 335.487,254.483 L 335.487,254.819 L 335.823,255.155 L 336.159,255.155 L 336.159,255.491 L 336.495,255.491 L 336.831,255.827 L 337.167,256.163 L 337.167,256.163 L 337.503,256.499 L 337.839,256.499 L 337.839,256.835 L 338.175,257.171 L 338.511,257.171 L 338.511,257.507 L 338.847,257.507 L 339.183,257.842 L 339.518,257.842 L 339.518,258.178 L 339.854,258.514 L 340.19,258.514 L 340.526,258.85 L 340.526,258.85 L 340.862,259.186 L 341.198,259.186 L 341.198,259.522 L 341.534,259.522 L 341.874,259.858 L 342.21,260.194 L 342.21,260.194 L 342.546,260.53 L 342.882,260.53 L 343.218,260.866 L 343.218,260.866 L 343.554,261.202 L 343.89,261.202 L 344.226,261.538 L 344.226,261.538 L 344.561,261.874 L 344.897,261.874 L 345.233,262.21 L 345.233,262.21 L 345.569,262.546 L 345.905,262.546 L 346.241,262.881 L 346.577,262.881 L 346.577,263.217 L 346.913,263.217 L 347.249,263.553 L 347.585,263.553 L 347.585,263.889 L 347.921,263.889 L 348.257,264.225 L 348.593,264.225 L 348.929,264.561 L 348.929,264.561 L 349.265,264.897 L 349.6,264.897 L 349.936,265.237 L 349.936,265.237 L 350.272,265.573 L 350.608,265.573 L 350.944,265.573"
       id="path16"
       style="fill:none;stroke:#000000;stroke-width:2.33332992;stroke-linejoin:round" />
    <path
       d="M 350.944,265.573 L 351.28,265.909 L 351.28,265.909 L 351.616,266.245 L 351.952,266.245 L 352.288,266.581 L 352.624,266.581 L 352.624,266.917 L 352.96,266.917 L 353.296,266.917 L 353.632,267.253 L 353.968,267.253 L 353.968,267.589 L 354.304,267.589 L 354.64,267.924 L 354.976,267.924 L 355.311,267.924 L 355.311,268.26 L 355.647,268.26 L 355.983,268.596 L 356.319,268.596 L 356.655,268.596 L 356.655,268.932 L 356.991,268.932 L 357.327,269.268 L 357.663,269.268 L 357.999,269.604 L 358.335,269.604 L 358.335,269.604 L 358.671,269.94 L 359.007,269.94 L 359.343,269.94 L 359.679,270.276 L 360.015,270.276 L 360.015,270.612 L 360.35,270.612 L 360.686,270.612 L 361.022,270.948 L 361.358,270.948 L 361.694,270.948 L 361.694,271.284 L 362.03,271.284 L 362.366,271.284 L 362.702,271.62 L 363.042,271.62 L 363.378,271.62 L 363.714,271.956 L 363.714,271.956 L 364.05,272.292 L 364.386,272.292 L 364.722,272.292 L 365.058,272.292 L 365.393,272.628 L 365.729,272.628 L 366.065,272.964 L 366.065,272.964 L 366.401,272.964 L 366.737,272.964 L 367.073,273.299 L 367.409,273.299 L 367.745,273.299 L 368.081,273.635 L 368.081,273.635 L 368.417,273.635 L 368.753,273.971 L 369.089,273.971 L 369.425,273.971 L 369.761,273.971 L 370.097,274.307 L 370.433,274.307 L 370.768,274.307 L 370.768,274.643 L 371.104,274.643 L 371.44,274.643 L 371.776,274.643 L 372.112,274.979 L 372.448,274.979 L 372.784,274.979 L 373.12,275.315 L 373.456,275.315 L 373.456,275.315 L 373.792,275.315 L 374.128,275.651 L 374.464,275.651 L 374.8,275.651 L 375.136,275.651 L 375.472,275.987 L 375.808,275.987 L 376.143,275.987 L 376.479,275.987 L 376.815,276.323 L 376.815,276.323 L 377.151,276.323 L 377.487,276.323 L 377.823,276.323 L 378.159,276.659 L 378.495,276.659 L 378.831,276.659 L 379.167,276.659 L 379.503,276.659 L 379.839,276.995 L 380.175,276.995 L 380.511,276.995 L 380.847,276.995 L 381.183,277.331 L 381.518,277.331 L 381.518,277.331 L 381.854,277.331 L 382.19,277.331 L 382.526,277.667 L 382.862,277.667 L 383.198,277.667 L 383.534,277.667 L 383.874,277.667 L 384.21,277.667 L 384.546,278.003 L 384.882,278.003 L 385.218,278.003 L 385.554,278.003 L 385.89,278.003 L 386.226,278.003 L 386.561,278.339 L 386.897,278.339 L 387.233,278.339 L 387.569,278.339 L 387.905,278.339 L 388.241,278.339 L 388.577,278.339 L 388.577,278.674 L 388.913,278.674 L 389.249,278.674 L 389.585,278.674 L 389.921,278.674 L 390.257,278.674 L 390.593,278.674 L 390.929,279.01 L 391.265,279.01 L 391.6,279.01 L 391.936,279.01 L 392.272,279.01 L 392.608,279.01 L 392.944,279.01 L 393.28,279.01 L 393.616,279.01 L 393.952,279.346 L 394.288,279.346 L 394.624,279.346 L 394.96,279.346 L 395.296,279.346 L 395.632,279.346 L 395.968,279.346 L 396.304,279.346 L 396.64,279.346 L 396.976,279.346 L 397.311,279.346 L 397.647,279.346 L 397.983,279.682 L 398.319,279.682 L 398.655,279.682 L 398.991,279.682 L 399.327,279.682 L 399.663,279.682 L 399.999,279.682 L 400.335,279.682 L 400.671,279.682 L 401.007,279.682 L 401.343,279.682 L 402.015,279.682 L 402.35,279.682 L 402.686,279.682 L 403.022,279.682 L 403.358,279.682 L 403.694,279.682 L 404.03,279.682 L 404.366,279.682 L 404.702,279.682 L 405.042,280.018 L 405.378,280.018 L 405.714,280.018 L 406.05,280.018 L 406.386,280.018 L 406.722,280.018 L 407.058,280.018 L 407.393,280.018 L 407.729,280.018 L 408.065,280.018 L 408.401,280.018 L 408.737,280.018 L 409.073,280.018 L 409.409,280.018 L 409.745,280.018 L 410.417,280.018 L 410.753,280.018 L 411.089,280.018 L 411.425,279.682 L 411.761,279.682 L 412.097,279.682 L 412.433,279.682 L 412.768,279.682 L 413.104,279.682 L 413.44,279.682 M 26.0297,327.057 L 44.5107,265.573 L 62.9907,327.057 M 26.0297,327.057 L 44.5107,327.057 L 62.9907,327.057 M 332.464,327.057 L 350.944,327.057 L 369.089,327.057 M 332.464,327.057 L 350.944,265.573 L 369.089,327.057"
       id="path18"
       style="fill:none;stroke:#000000;stroke-width:2.33332992;stroke-linejoin:round" />
    <path
       d="M 41.4867,311.604 L 42.8307,311.268 L 44.1747,309.589 L 44.1747,321.01 M 43.8387,309.924 L 43.8387,321.01 M 41.4867,321.01 L 46.5257,321.01"
       id="path20"
       style="fill:none;stroke:#000000;stroke-width:0.93333298;stroke-linejoin:round" />
    <path
       d="M 346.913,311.604 L 347.585,312.276 L 346.913,312.612 L 346.241,312.276 L 346.241,311.604 L 346.913,310.596 L 347.585,309.924 L 348.929,309.589 L 351.28,309.589 L 352.96,309.924 L 353.296,310.596 L 353.968,311.604 L 353.968,312.612 L 353.296,313.956 L 351.616,314.964 L 348.929,315.971 L 347.921,316.643 L 346.913,317.651 L 346.241,319.331 L 346.241,321.01 M 351.28,309.589 L 352.288,309.924 L 352.96,310.596 L 353.296,311.604 L 353.296,312.612 L 352.96,313.956 L 351.28,314.964 L 348.929,315.971 M 346.241,319.667 L 346.913,319.331 L 347.921,319.331 L 350.608,320.339 L 352.288,320.339 L 353.296,319.667 L 353.968,319.331 M 347.921,319.331 L 350.608,321.01 L 352.96,321.01 L 353.296,320.339 L 353.968,319.331 L 353.968,318.323"
       id="path22"
       style="fill:none;stroke:#000000;stroke-width:0.93333298;stroke-linejoin:round" />
    <path
       d="M 44.5107,265.573 L 350.944,265.573"
       id="path24"
       style="fill:none;stroke:#000000;stroke-width:0.93333298;stroke-linejoin:round" />
    <path
       d="M 204.112,270.612 L 205.792,271.62 L 204.112,272.628 M 202.433,268.932 L 205.12,271.62 L 202.433,274.307 M 196.05,271.62 L 205.12,271.62"
       id="path26"
       style="fill:none;stroke:#000000;stroke-width:0.93333298;stroke-linejoin:round" />
    <path
       d="M 197.058,279.01 L 194.702,290.1 M 197.729,279.01 L 195.378,290.1 M 196.722,284.385 L 197.729,283.378 L 199.073,282.706 L 200.081,282.706 L 201.761,283.378 L 202.433,284.385 L 202.768,286.065 L 202.433,287.077 L 201.761,288.757 L 200.417,289.764 L 198.737,290.1 L 197.393,290.1 L 196.722,289.764 L 195.714,288.757 M 200.081,282.706 L 201.089,283.378 L 202.097,284.385 L 202.097,286.065 L 202.097,287.077 L 201.089,288.757 L 199.745,289.764 L 198.737,290.1 M 195.378,279.01 L 197.729,279.01"
       id="path28"
       style="fill:none;stroke:#000000;stroke-width:0.93333298;stroke-linejoin:round" />
    <path
       d="M 44.5107,265.573 L 121.12,133.186"
       id="path30"
       style="fill:none;stroke:#000000;stroke-width:0.93333298;stroke-linejoin:round" />
    <path
       d="M 350.944,265.573 L 427.554,133.186 M 121.12,133.186 L 197.729,0.466675"
       id="path32"
       style="fill:none;stroke:#000000;stroke-width:0.93333298;stroke-linejoin:round;stroke-dasharray:6, 3" />
    <path
       d="M 182.272,27.0096 L 197.729,0.466675 L 191.007,5.17065 L 197.729,0.466675 L 197.058,8.86566"
       id="path34"
       style="fill:none;stroke:#000000;stroke-width:0.93333298;stroke-linejoin:round" />
    <path
       d="M 55.6007,209.796 L 55.9357,210.467 L 56.6077,210.467 L 56.2717,209.46 L 55.9357,209.46 L 54.5927,209.796 L 53.5847,210.467 L 52.5767,211.811 L 52.2407,213.491 L 52.5767,214.835 L 53.9207,216.178 L 54.9287,216.85 L 56.6077,217.186 L 57.9517,216.85 L 59.2957,215.507"
       id="path36"
       style="fill:none;stroke:#000000;stroke-width:0.93333298;stroke-linejoin:round" />
    <path
       d="M 59.2957,215.507 L 59.6317,214.499 L 59.9677,212.819 L 59.6317,211.475 M 52.5767,211.811 L 52.5767,213.155 L 52.9127,214.499 L 54.2567,215.842 L 54.9287,216.178 L 56.6077,216.514 L 58.2877,216.178 L 59.2957,215.507 M 58.9597,202.405 L 63.9987,207.108 M 58.9597,202.405 L 64.3347,206.772 M 57.2797,207.108 L 56.9437,205.428 L 57.2797,203.749 L 60.3037,198.706 M 57.2797,207.108 L 57.2797,205.764 L 57.6157,204.085 L 60.6397,199.042"
       id="path38"
       style="fill:none;stroke:#000000;stroke-width:0.93333298;stroke-linejoin:round" />
    <path
       d="M 69.0417,199.714 L 69.0417,200.385 L 69.3777,200.721 L 69.7137,201.393 L 70.0497,201.729 L 71.0577,201.729 L 71.3927,201.729 L 72.0647,201.393 L 72.4007,200.721 L 72.4007,200.049 L 72.0647,199.714 L 71.7287,199.042 L 71.3927,198.706 L 70.3857,198.706 L 70.0497,198.706 L 69.3777,199.042 L 69.0417,199.714 M 69.0417,200.385 L 69.3777,201.057 L 70.7217,201.729 L 71.3927,201.729 M 72.4007,200.049 L 72.0647,199.378 L 70.7217,198.706 L 70.0497,198.706 M 70.3857,198.706 L 70.3857,198.034 L 70.3857,197.362 L 70.7217,197.698 L 70.3857,198.034 M 71.0577,201.729 L 71.0577,202.069 L 71.3927,202.741 L 71.7287,203.077 L 72.4007,203.077 L 73.0727,202.405 L 74.0807,201.057 L 74.7527,200.385 L 75.0887,200.049 M 71.7287,203.077 L 72.0647,202.741 L 73.0727,202.069 L 73.7447,200.721 L 74.4167,200.049 L 75.0887,200.049 L 75.4247,200.385 L 75.7607,201.057 L 75.7607,202.069 L 74.7527,203.749 L 74.0807,204.421 L 73.0727,204.421 L 73.0727,204.085 L 72.4007,203.413 L 72.7367,202.405 M 70.0497,183.589 L 75.0887,175.186 M 73.0727,185.268 L 77.7757,176.866"
       id="path40"
       style="fill:none;stroke:#000000;stroke-width:0.93333298;stroke-linejoin:round" />
    <path
       d="M 73.7447,150.995 L 75.4247,150.323 L 75.4247,152.339 M 71.3927,151.667 L 75.0887,150.659 L 76.0967,154.354 M 70.7217,158.721 L 75.0887,150.659"
       id="path42"
       style="fill:none;stroke:#000000;stroke-width:0.93333298;stroke-linejoin:round" />
    <path
       d="M 77.4397,161.413 L 86.1747,169.139 M 77.7757,161.077 L 86.5107,168.467 M 81.8077,164.436 L 81.4717,162.757 L 81.8077,161.749 L 82.1427,160.741 L 83.4867,159.729 L 84.8307,159.393 L 86.1747,160.069 L 87.1827,160.741 L 88.1897,162.421 L 88.5257,164.1 L 87.8537,165.78 L 87.5177,166.788 L 86.5107,167.124 L 85.1667,167.46 M 82.1427,160.741 L 83.1507,160.069 L 84.4947,159.729 L 86.1747,160.405 L 86.8467,161.413 L 87.8537,162.757 L 88.1897,164.436 L 87.8537,165.78 M 76.7677,162.757 L 77.7757,161.077"
       id="path44"
       style="fill:none;stroke:#000000;stroke-width:0.93333298;stroke-linejoin:round" />
    <path
       d="M 91.2177,151.667 L 87.5177,154.018 L 89.5337,157.714 L 93.5687,155.698 L 91.2177,151.667"
       id="path46"
       style="fill:#000000;fill-rule:evenodd;stroke:none" />
    <path
       d="M 91.8897,141.253 L 91.5537,136.21 L 96.2567,133.858 M 91.8897,141.253 L 92.2257,136.546 L 96.2567,133.858"
       id="path48"
       style="fill:none;stroke:#000000;stroke-width:0.93333298;stroke-linejoin:round" />
    <path
       d="M 96.5927,137.889 L 96.2567,136.546 L 97.9357,137.889 L 96.5927,137.889 L 95.9207,137.889 L 94.9127,138.561 L 93.9047,140.245 L 93.9047,141.589 L 93.9047,142.26 L 94.9127,143.268 L 95.5847,142.932 L 96.5927,142.596 L 98.6077,140.917 L 99.6157,140.245 L 100.288,140.245 M 94.5767,142.932 L 95.2487,142.596 L 95.9207,142.26 L 98.2717,140.581 L 99.2797,139.909 L 99.9517,139.909 L 100.96,140.917 L 101.296,141.589 L 100.96,142.932 L 99.9517,144.948 L 98.9437,145.62 L 98.2717,145.62 L 97.2647,145.284 L 98.9437,146.628 L 98.2717,145.62"
       id="path50"
       style="fill:none;stroke:#000000;stroke-width:0.93333298;stroke-linejoin:round" />
    <path
       d="M 103.983,134.866 L 103.983,135.874 L 104.319,136.881 L 105.663,137.889 L 106.335,138.225 L 108.015,138.897 L 109.022,138.897 L 110.03,138.225 L 110.366,137.553 L 110.366,136.546 L 110.03,135.538 L 108.686,134.53 L 107.679,133.858 L 106.335,133.522 L 104.991,133.522 L 104.319,134.194 L 103.983,134.866 L 103.983,135.538 L 103.983,135.874 L 104.655,136.546 L 105.663,137.553 L 106.671,138.225 L 108.015,138.561 L 109.022,138.561 L 109.358,138.561 L 110.03,138.225 M 110.366,137.553 L 110.366,136.881 L 110.03,136.546 L 109.694,135.874 L 108.686,134.866 L 107.679,134.194 L 105.999,133.858 L 105.327,133.858 L 104.991,133.858 L 104.319,134.194"
       id="path52"
       style="fill:none;stroke:#000000;stroke-width:0.93333298;stroke-linejoin:round" />
    <path
       d="M 171.854,9.87366 L 171.518,4.83466 L 175.89,2.48267 M 171.854,9.87366 L 172.19,5.17065 L 175.89,2.48267"
       id="path54"
       style="fill:none;stroke:#000000;stroke-width:0.93333298;stroke-linejoin:round" />
    <path
       d="M 176.561,6.17767 L 176.226,5.17065 L 177.569,6.51367 L 176.561,6.17767 L 175.89,6.51367 L 174.882,6.84967 L 173.874,8.86566 L 173.874,10.2097 L 173.874,10.8807 L 174.882,11.5527 L 175.554,11.5527 L 176.226,10.8807 L 178.577,9.53766 L 179.585,8.86566 L 180.257,8.52966 M 174.21,11.2167 L 174.882,11.2167 L 175.89,10.5457 L 178.241,8.86566 L 179.249,8.52966 L 179.921,8.19366 L 180.929,9.53766 L 181.265,10.2097 L 180.929,11.5527 L 179.921,13.5727 L 178.913,13.9087 L 178.241,14.2447 L 177.233,13.9087 L 178.913,15.2527 L 178.241,14.2447"
       id="path56"
       style="fill:none;stroke:#000000;stroke-width:0.93333298;stroke-linejoin:round" />
    <path
       d="M 183.952,3.15466 L 183.616,4.16266 L 184.288,5.17065 L 185.632,6.51367 L 186.304,6.84967 L 187.983,7.52167 L 188.991,7.52167 L 189.999,6.51367 L 189.999,6.17767 L 190.335,5.17065 L 189.999,4.16266 L 188.655,2.81866 L 187.647,2.48267 L 186.304,1.81067 L 184.96,2.14667 L 184.288,2.81866 L 183.952,3.15466 L 183.952,4.16266 L 183.952,4.49866 L 184.288,5.17065 L 185.632,6.17767 L 186.64,6.51367 L 187.983,7.18567 L 188.655,7.18567 L 189.327,7.18567 L 189.999,6.51367 M 189.999,6.17767 L 190.335,5.50568 L 189.999,4.83466 L 189.663,4.49866 L 188.319,3.15466 L 187.647,2.81866 L 185.968,2.14667 L 185.296,2.14667 L 184.96,2.48267 L 184.288,2.81866"
       id="path58"
       style="fill:none;stroke:#000000;stroke-width:0.93333298;stroke-linejoin:round" />
    <path
       d="M 121.12,133.186 L 350.944,265.573 M 105.663,265.573 L 105.663,265.573 L 105.663,265.573 L 105.663,265.573 L 105.663,265.573 L 105.663,265.573 L 105.663,265.237 L 105.663,265.237 L 105.663,265.237 L 105.663,265.237 L 105.663,265.237 L 105.663,264.897 L 105.663,264.897 L 105.663,264.897 L 105.663,264.897 L 105.663,264.897 L 105.663,264.897 L 105.663,264.561 L 105.663,264.561 L 105.663,264.561 L 105.663,264.561 L 105.663,264.561 L 105.663,264.225 L 105.663,264.225 L 105.663,264.225 L 105.663,264.225 L 105.663,264.225 L 105.663,264.225 L 105.663,263.889 L 105.663,263.889 L 105.663,263.889 L 105.663,263.889 L 105.663,263.889 L 105.663,263.553 L 105.663,263.553 L 105.663,263.553 L 105.663,263.553 L 105.663,263.553 L 105.663,263.553 L 105.663,263.217 L 105.663,263.217 L 105.663,263.217 L 105.663,263.217 L 105.663,263.217 L 105.663,262.881 L 105.663,262.881 L 105.663,262.881 L 105.663,262.881 L 105.663,262.881 L 105.663,262.881 L 105.663,262.546 L 105.663,262.546 L 105.663,262.546 L 105.663,262.546 L 105.663,262.546 L 105.663,262.21 L 105.663,262.21 L 105.663,262.21 L 105.663,262.21 L 105.663,262.21 L 105.663,262.21 L 105.663,261.874 L 105.663,261.874 L 105.663,261.874 L 105.663,261.874 L 105.663,261.874 L 105.663,261.538 L 105.663,261.538 L 105.663,261.538 L 105.663,261.538 L 105.663,261.538 L 105.663,261.538 L 105.663,261.202 L 105.663,261.202 L 105.663,261.202 L 105.663,261.202 L 105.663,261.202 L 105.663,260.866 L 105.663,260.866 L 105.663,260.866 L 105.663,260.866 L 105.663,260.866 L 105.663,260.866 L 105.663,260.53 L 105.663,260.53 L 105.663,260.53 L 105.663,260.53 L 105.663,260.53 L 105.663,260.194 L 105.663,260.194 L 105.663,260.194 L 105.663,260.194 L 105.663,260.194 L 105.663,260.194 L 105.663,259.858 L 105.663,259.858 L 105.663,259.858 L 105.663,259.858 L 105.663,259.858 L 105.327,259.522 L 105.327,259.522 L 105.327,259.522 L 105.327,259.522 L 105.327,259.522 L 105.327,259.522 L 105.327,259.186 L 105.327,259.186 L 105.327,259.186 L 105.327,259.186 L 105.327,259.186 L 105.327,258.85 L 105.327,258.85 L 105.327,258.85 L 105.327,258.85 L 105.327,258.85 L 105.327,258.85 L 105.327,258.514 L 105.327,258.514 L 105.327,258.514 L 105.327,258.514 L 105.327,258.514 L 105.327,258.178 L 105.327,258.178 L 105.327,258.178 L 105.327,258.178 L 105.327,258.178 L 105.327,258.178 L 105.327,257.842 L 105.327,257.842 L 105.327,257.842 L 105.327,257.842 L 105.327,257.842 L 105.327,257.507 L 105.327,257.507 L 105.327,257.507 L 105.327,257.507 L 105.327,257.507 L 105.327,257.507 L 105.327,257.171 L 105.327,257.171 L 105.327,257.171 L 105.327,257.171 L 105.327,257.171 L 105.327,256.835 L 105.327,256.835 L 104.991,256.835 L 104.991,256.835 L 104.991,256.835 L 104.991,256.835 L 104.991,256.499 L 104.991,256.499 L 104.991,256.499 L 104.991,256.499 L 104.991,256.499 L 104.991,256.163 L 104.991,256.163 L 104.991,256.163 L 104.991,256.163 L 104.991,256.163 L 104.991,256.163 L 104.991,255.827 L 104.991,255.827 L 104.991,255.827 L 104.991,255.827 L 104.991,255.827 L 104.991,255.827 L 104.991,255.491 L 104.991,255.491"
       id="path60"
       style="fill:none;stroke:#000000;stroke-width:0.93333298;stroke-linejoin:round" />
    <path
       d="M 104.991,255.491 L 104.991,255.491 L 104.991,255.491 L 104.991,255.491 L 104.991,255.155 L 104.991,255.155 L 104.991,255.155 L 104.991,255.155 L 104.991,255.155 L 104.991,255.155 L 104.991,254.819 L 104.991,254.819 L 104.991,254.819 L 104.655,254.819 L 104.655,254.819 L 104.655,254.483 L 104.655,254.483 L 104.655,254.483 L 104.655,254.483 L 104.655,254.483 L 104.655,254.483 L 104.655,254.147 L 104.655,254.147 L 104.655,254.147 L 104.655,254.147 L 104.655,254.147 L 104.655,253.811 L 104.655,253.811 L 104.655,253.811 L 104.655,253.811 L 104.655,253.811 L 104.655,253.811 L 104.655,253.475 L 104.655,253.475 L 104.655,253.475 L 104.655,253.475 L 104.655,253.475 L 104.655,253.475 L 104.655,253.139 L 104.655,253.139 L 104.319,253.139 L 104.319,253.139 L 104.319,253.139 L 104.319,252.803 L 104.319,252.803 L 104.319,252.803 L 104.319,252.803 L 104.319,252.803 L 104.319,252.803 L 104.319,252.467 L 104.319,252.467 L 104.319,252.467 L 104.319,252.467 L 104.319,252.467 L 104.319,252.131 L 104.319,252.131 L 104.319,252.131 L 104.319,252.131 L 104.319,252.131 L 104.319,252.131 L 104.319,251.796 L 104.319,251.796 L 104.319,251.796 L 104.319,251.796 L 104.319,251.796 L 104.319,251.796 L 103.983,251.46 L 103.983,251.46 L 103.983,251.46 L 103.983,251.46 L 103.983,251.46 L 103.983,251.124 L 103.983,251.124 L 103.983,251.124 L 103.983,251.124 L 103.983,251.124 L 103.983,251.124 L 103.983,250.788 L 103.983,250.788 L 103.983,250.788 L 103.983,250.788 L 103.983,250.788 L 103.983,250.788 L 103.983,250.452 L 103.983,250.452 L 103.983,250.452 L 103.983,250.452 L 103.983,250.452 L 103.983,250.116 L 103.647,250.116 L 103.647,250.116 L 103.647,250.116 L 103.647,250.116 L 103.647,250.116 L 103.647,249.78 L 103.647,249.78 L 103.647,249.78 L 103.647,249.78 L 103.647,249.78 L 103.647,249.78 L 103.647,249.444 L 103.647,249.444 L 103.647,249.444 L 103.647,249.444 L 103.647,249.444 L 103.647,249.108 L 103.647,249.108 L 103.647,249.108 L 103.647,249.108 L 103.311,249.108 L 103.311,249.108 L 103.311,248.772 L 103.311,248.772 L 103.311,248.772 L 103.311,248.772 L 103.311,248.772 L 103.311,248.772 L 103.311,248.436 L 103.311,248.436 L 103.311,248.436 L 103.311,248.436 L 103.311,248.436 L 103.311,248.1 L 103.311,248.1 L 103.311,248.1 L 103.311,248.1 L 103.311,248.1 L 103.311,248.1 L 103.311,247.764 L 102.976,247.764 L 102.976,247.764 L 102.976,247.764 L 102.976,247.764 L 102.976,247.764 L 102.976,247.428 L 102.976,247.428 L 102.976,247.428 L 102.976,247.428 L 102.976,247.428 L 102.976,247.428 L 102.976,247.092 L 102.976,247.092 L 102.976,247.092 L 102.976,247.092 L 102.976,247.092 L 102.976,246.757 L 102.976,246.757 L 102.64,246.757 L 102.64,246.757 L 102.64,246.757 L 102.64,246.757 L 102.64,246.421 L 102.64,246.421 L 102.64,246.421 L 102.64,246.421 L 102.64,246.421 L 102.64,246.421 L 102.64,246.085 L 102.64,246.085 L 102.64,246.085 L 102.64,246.085 L 102.64,246.085 L 102.64,246.085 L 102.64,245.749 L 102.64,245.749 L 102.304,245.749 L 102.304,245.749 L 102.304,245.749 L 102.304,245.749 L 102.304,245.413 L 102.304,245.413 L 102.304,245.413 L 102.304,245.413 L 102.304,245.413 L 102.304,245.077 L 102.304,245.077 L 102.304,245.077 L 102.304,245.077 L 102.304,245.077 L 102.304,245.077 L 101.968,244.741 L 101.968,244.741 L 101.968,244.741 L 101.968,244.741 L 101.968,244.741 L 101.968,244.741 L 101.968,244.405 L 101.968,244.405 L 101.968,244.405 L 101.968,244.405 L 101.968,244.405 L 101.968,244.405 L 101.968,244.065 L 101.968,244.065 L 101.968,244.065 L 101.968,244.065 L 101.968,244.065 L 101.632,244.065 L 101.632,243.729 L 101.632,243.729 L 101.632,243.729 L 101.632,243.729 L 101.632,243.729 L 101.632,243.393 L 101.632,243.393 L 101.632,243.393 L 101.632,243.393 L 101.632,243.393 L 101.632,243.393 L 101.632,243.057 L 101.632,243.057 L 101.632,243.057 L 101.296,243.057 L 101.296,243.057 L 101.296,243.057 L 101.296,243.057 L 101.296,242.721 L 101.296,242.721 L 101.296,242.721 L 101.296,242.721 L 101.296,242.721 L 101.296,242.721 L 101.296,242.385 L 101.296,242.385 L 101.296,242.385 L 101.296,242.385 L 100.96,242.385 L 100.96,242.049 L 100.96,242.049 L 100.96,242.049 L 100.96,242.049 L 100.96,242.049 L 100.96,242.049 L 100.96,241.714 L 100.96,241.714 L 100.96,241.714 L 100.96,241.714 L 100.96,241.714 L 100.96,241.714 L 100.96,241.378 L 100.624,241.378 L 100.624,241.378 L 100.624,241.378 L 100.624,241.378 L 100.624,241.378 L 100.624,241.042 L 100.624,241.042 L 100.624,241.042 L 100.624,241.042 L 100.624,241.042 L 100.624,241.042 L 100.624,240.706 L 100.624,240.706 L 100.624,240.706 L 100.288,240.706 L 100.288,240.706 L 100.288,240.706 L 100.288,240.37 L 100.288,240.37 L 100.288,240.37 L 100.288,240.37 L 100.288,240.37 L 100.288,240.37 L 100.288,240.034 L 100.288,240.034 L 100.288,240.034 L 100.288,240.034 L 100.288,240.034 L 99.9517,240.034 L 99.9517,239.698 L 99.9517,239.698 L 99.9517,239.698 L 99.9517,239.698 L 99.9517,239.698 L 99.9517,239.698 L 99.9517,239.362 L 99.9517,239.362 L 99.9517,239.362 L 99.9517,239.362 L 99.9517,239.362 L 99.6157,239.362 L 99.6157,239.362 L 99.6157,239.026 L 99.6157,239.026 L 99.6157,239.026 L 99.6157,239.026 L 99.6157,239.026 L 99.6157,238.69 L 99.6157,238.69 L 99.6157,238.69 L 99.6157,238.69 L 99.6157,238.69 L 99.6157,238.69 L 99.2797,238.69 L 99.2797,238.354 L 99.2797,238.354 L 99.2797,238.354 L 99.2797,238.354 L 99.2797,238.354 L 99.2797,238.354 L 99.2797,238.018"
       id="path62"
       style="fill:none;stroke:#000000;stroke-width:0.93333298;stroke-linejoin:round" />
    <path
       d="M 99.2797,238.018 L 99.2797,238.018 L 99.2797,238.018 L 99.2797,238.018 L 99.2797,238.018 L 98.9437,238.018 L 98.9437,237.682 L 98.9437,237.682 L 98.9437,237.682 L 98.9437,237.682 L 98.9437,237.682 L 98.9437,237.682 L 98.9437,237.346 L 98.9437,237.346 L 98.9437,237.346 L 98.9437,237.346 L 98.9437,237.346 L 98.6077,237.346 L 98.6077,237.01 L 98.6077,237.01 L 98.6077,237.01 L 98.6077,237.01 L 98.6077,237.01 L 98.6077,237.01 L 98.6077,237.01 L 98.6077,236.674 L 98.6077,236.674 L 98.6077,236.674 L 98.2717,236.674 L 98.2717,236.674 L 98.2717,236.674 L 98.2717,236.339 L 98.2717,236.339 L 98.2717,236.339 L 98.2717,236.339 L 98.2717,236.339 L 98.2717,236.339 L 98.2717,236.003 L 98.2717,236.003 L 98.2717,236.003 L 97.9357,236.003 L 97.9357,236.003 L 97.9357,236.003 L 97.9357,235.667 L 97.9357,235.667 L 97.9357,235.667 L 97.9357,235.667 L 97.9357,235.667 L 97.9357,235.667 L 97.9357,235.331 L 97.9357,235.331 L 97.9357,235.331 L 97.5997,235.331 L 97.5997,235.331 L 97.5997,235.331 L 97.5997,235.331 L 97.5997,234.995 L 97.5997,234.995 L 97.5997,234.995 L 97.5997,234.995 L 97.5997,234.995 L 97.5997,234.995 L 97.2647,234.659 L 97.2647,234.659 L 97.2647,234.659 L 97.2647,234.659 L 97.2647,234.659 L 97.2647,234.659 L 97.2647,234.659 L 97.2647,234.323 L 97.2647,234.323 L 97.2647,234.323 L 97.2647,234.323 L 96.9287,234.323 L 96.9287,234.323 L 96.9287,233.987 L 96.9287,233.987 L 96.9287,233.987 L 96.9287,233.987 L 96.9287,233.987 L 96.9287,233.987 L 96.9287,233.651 L 96.9287,233.651 L 96.9287,233.651 L 96.5927,233.651 L 96.5927,233.651 L 96.5927,233.651 L 96.5927,233.651 L 96.5927,233.315 L 96.5927,233.315 L 96.5927,233.315 L 96.5927,233.315 L 96.5927,233.315 L 96.5927,233.315 L 96.2567,232.979 L 96.2567,232.979 L 96.2567,232.979 L 96.2567,232.979 L 96.2567,232.979 L 96.2567,232.979 L 96.2567,232.979 L 96.2567,232.643 L 96.2567,232.643 L 96.2567,232.643 L 95.9207,232.643 L 95.9207,232.643 L 95.9207,232.643 L 95.9207,232.307 L 95.9207,232.307 L 95.9207,232.307 L 95.9207,232.307 L 95.9207,232.307 L 95.9207,232.307 L 95.9207,232.307 L 95.5847,231.971 L 95.5847,231.971 L 95.5847,231.971 L 95.5847,231.971 L 95.5847,231.971 L 95.5847,231.971 L 95.5847,231.635 L 95.5847,231.635 L 95.5847,231.635 L 95.5847,231.635 L 95.2487,231.635 L 95.2487,231.635 L 95.2487,231.635 L 95.2487,231.299 L 95.2487,231.299 L 95.2487,231.299 L 95.2487,231.299 L 95.2487,231.299 L 95.2487,231.299 L 95.2487,231.299 L 94.9127,230.964 L 94.9127,230.964 L 94.9127,230.964 L 94.9127,230.964 L 94.9127,230.964 L 94.9127,230.964 L 94.9127,230.628 L 94.9127,230.628 L 94.9127,230.628 L 94.9127,230.628 L 94.5767,230.628 L 94.5767,230.628 L 94.5767,230.628 L 94.5767,230.292 L 94.5767,230.292 L 94.5767,230.292 L 94.5767,230.292 L 94.5767,230.292 L 94.5767,230.292 L 94.2407,230.292 L 94.2407,229.956 L 94.2407,229.956 L 94.2407,229.956 L 94.2407,229.956 L 94.2407,229.956 L 94.2407,229.956 L 94.2407,229.956 L 94.2407,229.62 L 93.9047,229.62 L 93.9047,229.62 L 93.9047,229.62 L 93.9047,229.62 L 93.9047,229.62 L 93.9047,229.284 L 93.9047,229.284 L 93.9047,229.284 L 93.9047,229.284 L 93.9047,229.284 L 93.5687,229.284 L 93.5687,229.284 L 93.5687,228.948 L 93.5687,228.948 L 93.5687,228.948 L 93.5687,228.948 L 93.5687,228.948 L 93.5687,228.948 L 93.5687,228.948 L 93.2327,228.612 L 93.2327,228.612 L 93.2327,228.612 L 93.2327,228.612 L 93.2327,228.612 L 93.2327,228.612 L 93.2327,228.612 L 93.2327,228.276 L 93.2327,228.276 L 92.8967,228.276 L 92.8967,228.276 L 92.8967,228.276 L 92.8967,228.276 L 92.8967,228.276 L 92.8967,227.94 L 92.8967,227.94 L 92.8967,227.94 L 92.8967,227.94 L 92.5607,227.94 L 92.5607,227.94 L 92.5607,227.94 L 92.5607,227.604 L 92.5607,227.604 L 92.5607,227.604 L 92.5607,227.604 L 92.5607,227.604 L 92.5607,227.604 L 92.2257,227.604 L 92.2257,227.268 L 92.2257,227.268 L 92.2257,227.268 L 92.2257,227.268 L 92.2257,227.268 L 92.2257,227.268 L 92.2257,227.268 L 92.2257,226.932 L 91.8897,226.932 L 91.8897,226.932 L 91.8897,226.932 L 91.8897,226.932 L 91.8897,226.932 L 91.8897,226.932 L 91.8897,226.596 L 91.8897,226.596 L 91.5537,226.596 L 91.5537,226.596 L 91.5537,226.596 L 91.5537,226.596 L 91.5537,226.596 L 91.5537,226.26 L 91.5537,226.26 L 91.5537,226.26 L 91.5537,226.26 L 91.2177,226.26 L 91.2177,226.26 L 91.2177,226.26 L 91.2177,225.924 L 91.2177,225.924 L 91.2177,225.924 L 91.2177,225.924 L 91.2177,225.924 L 90.8817,225.924 L 90.8817,225.924 L 90.8817,225.589 L 90.8817,225.589 L 90.8817,225.589 L 90.8817,225.589 L 90.8817,225.589 L 90.8817,225.589 L 90.5457,225.589 L 90.5457,225.589 L 90.5457,225.253 L 90.5457,225.253 L 90.5457,225.253 L 90.5457,225.253 L 90.5457,225.253 L 90.5457,225.253 L 90.5457,225.253 L 90.2097,224.917 L 90.2097,224.917 L 90.2097,224.917 L 90.2097,224.917 L 90.2097,224.917 L 90.2097,224.917 L 90.2097,224.917 L 90.2097,224.581 L 89.8737,224.581 L 89.8737,224.581 L 89.8737,224.581 L 89.8737,224.581 L 89.8737,224.581 L 89.8737,224.581 L 89.8737,224.581 L 89.8737,224.245 L 89.5337,224.245 L 89.5337,224.245 L 89.5337,224.245 L 89.5337,224.245 L 89.5337,224.245 L 89.5337,224.245 L 89.5337,223.909 L 89.5337,223.909 L 89.1977,223.909 L 89.1977,223.909 L 89.1977,223.909 L 89.1977,223.909 L 89.1977,223.909 L 89.1977,223.573 L 89.1977,223.573 L 89.1977,223.573 L 88.8617,223.573 L 88.8617,223.573 L 88.8617,223.573 L 88.8617,223.573 L 88.8617,223.573 L 88.8617,223.237 L 88.8617,223.237 L 88.8617,223.237 L 88.5257,223.237 L 88.5257,223.237"
       id="path64"
       style="fill:none;stroke:#000000;stroke-width:0.93333298;stroke-linejoin:round" />
    <path
       d="M 88.5257,223.237 L 88.5257,223.237 L 88.5257,223.237 L 88.5257,223.237 L 88.5257,222.897 L 88.5257,222.897 L 88.5257,222.897 L 88.1897,222.897 L 88.1897,222.897 L 88.1897,222.897 L 88.1897,222.897 L 88.1897,222.561 L 88.1897,222.561 L 88.1897,222.561 L 88.1897,222.561 L 87.8537,222.561 L 87.8537,222.561 L 87.8537,222.561 L 87.8537,222.561 L 87.8537,222.225 L 87.8537,222.225 L 87.8537,222.225 L 87.8537,222.225 L 87.5177,222.225 L 87.5177,222.225 L 87.5177,222.225 L 87.5177,222.225 L 87.5177,221.889 L 87.5177,221.889 L 87.5177,221.889 L 87.5177,221.889 L 87.1827,221.889 L 87.1827,221.889 L 87.1827,221.889 L 87.1827,221.889 L 87.1827,221.553 L 87.1827,221.553 L 87.1827,221.553 L 86.8467,221.553 L 86.8467,221.553 L 86.8467,221.553 L 86.8467,221.553 L 86.8467,221.553 L 86.8467,221.217 L 86.8467,221.217 L 86.8467,221.217 L 86.5107,221.217 L 86.5107,221.217 L 86.5107,221.217 L 86.5107,221.217 L 86.5107,221.217 L 86.5107,220.881 L 86.5107,220.881 L 86.1747,220.881 L 86.1747,220.881 L 86.1747,220.881 L 86.1747,220.881 L 86.1747,220.881 L 86.1747,220.881 L 86.1747,220.546 L 85.8387,220.546 L 85.8387,220.546 L 85.8387,220.546 L 85.8387,220.546 L 85.8387,220.546 L 85.8387,220.546 L 85.8387,220.546 L 85.8387,220.21 L 85.5027,220.21 L 85.5027,220.21 L 85.5027,220.21 L 85.5027,220.21 L 85.5027,220.21 L 85.5027,220.21 L 85.5027,220.21 L 85.1667,219.874 L 85.1667,219.874 L 85.1667,219.874 L 85.1667,219.874 L 85.1667,219.874 L 85.1667,219.874 L 85.1667,219.874 L 85.1667,219.874 L 84.8307,219.538 L 84.8307,219.538 L 84.8307,219.538 L 84.8307,219.538 L 84.8307,219.538 L 84.8307,219.538 L 84.8307,219.538 L 84.4947,219.538 L 84.4947,219.538 L 84.4947,219.202 L 84.4947,219.202 L 84.4947,219.202 L 84.4947,219.202 L 84.4947,219.202 L 84.1587,219.202 L 84.1587,219.202 L 84.1587,219.202 L 84.1587,218.866 L 84.1587,218.866 L 84.1587,218.866 L 84.1587,218.866 L 84.1587,218.866 L 83.8227,218.866 L 83.8227,218.866 L 83.8227,218.866 L 83.8227,218.866 L 83.8227,218.53 L 83.8227,218.53 L 83.4867,218.53 L 83.4867,218.53 L 83.4867,218.53 L 83.4867,218.53 L 83.4867,218.53 L 83.4867,218.53 L 83.4867,218.194 L 83.4867,218.194 L 83.1507,218.194 L 83.1507,218.194 L 83.1507,218.194 L 83.1507,218.194 L 83.1507,218.194 L 83.1507,218.194 L 83.1507,218.194 L 82.8147,217.858 L 82.8147,217.858 L 82.8147,217.858 L 82.8147,217.858 L 82.8147,217.858 L 82.8147,217.858 L 82.4787,217.858 L 82.4787,217.858 L 82.4787,217.858 L 82.4787,217.522 L 82.4787,217.522 L 82.4787,217.522 L 82.4787,217.522 L 82.4787,217.522 L 82.1427,217.522 L 82.1427,217.522 L 82.1427,217.522 L 82.1427,217.522 L 82.1427,217.186 L 82.1427,217.186 L 82.1427,217.186 L 81.8077,217.186 L 81.8077,217.186 L 81.8077,217.186 L 81.8077,217.186 L 81.8077,217.186 L 81.8077,217.186 L 81.8077,216.85 L 81.4717,216.85 L 81.4717,216.85 L 81.4717,216.85 L 81.4717,216.85 L 81.4717,216.85 L 81.4717,216.85 L 81.1357,216.85 L 81.1357,216.514 L 81.1357,216.514 L 81.1357,216.514 L 81.1357,216.514 L 81.1357,216.514 L 81.1357,216.514 L 80.7997,216.514 L 80.7997,216.514 L 80.7997,216.514 L 80.7997,216.514 L 80.7997,216.178 L 80.7997,216.178 L 80.7997,216.178 L 80.4637,216.178 L 80.4637,216.178 L 80.4637,216.178 L 80.4637,216.178 L 80.4637,216.178 L 80.4637,216.178 L 80.4637,215.842 L 80.1277,215.842 L 80.1277,215.842 L 80.1277,215.842 L 80.1277,215.842 L 80.1277,215.842 L 80.1277,215.842 L 80.1277,215.842 L 79.7917,215.842 L 79.7917,215.507 L 79.7917,215.507 L 79.7917,215.507 L 79.7917,215.507 L 79.7917,215.507 L 79.4557,215.507 L 79.4557,215.507 L 79.4557,215.507 L 79.4557,215.507 L 79.4557,215.507 L 79.4557,215.171 L 79.4557,215.171 L 79.1197,215.171 L 79.1197,215.171 L 79.1197,215.171 L 79.1197,215.171 L 79.1197,215.171 L 79.1197,215.171 L 78.7837,215.171 L 78.7837,215.171 L 78.7837,214.835 L 78.7837,214.835 L 78.7837,214.835 L 78.7837,214.835 L 78.7837,214.835 L 78.4477,214.835 L 78.4477,214.835 L 78.4477,214.835 L 78.4477,214.835 L 78.4477,214.835 L 78.4477,214.499 L 78.4477,214.499 L 78.1117,214.499 L 78.1117,214.499 L 78.1117,214.499 L 78.1117,214.499 L 78.1117,214.499 L 78.1117,214.499 L 77.7757,214.499 L 77.7757,214.499 L 77.7757,214.163 L 77.7757,214.163 L 77.7757,214.163 L 77.7757,214.163 L 77.7757,214.163 L 77.4397,214.163 L 77.4397,214.163 L 77.4397,214.163 L 77.4397,214.163 L 77.4397,214.163 L 77.4397,213.827 L 77.1037,213.827 L 77.1037,213.827 L 77.1037,213.827 L 77.1037,213.827 L 77.1037,213.827 L 77.1037,213.827 L 77.1037,213.827 L 76.7677,213.827 L 76.7677,213.827 L 76.7677,213.491 L 76.7677,213.491 L 76.7677,213.491 L 76.7677,213.491 L 76.4327,213.491 L 76.4327,213.491 L 76.4327,213.491 L 76.4327,213.491 L 76.4327,213.491 L 76.4327,213.491 L 76.4327,213.155 L 76.0967,213.155 L 76.0967,213.155 L 76.0967,213.155 L 76.0967,213.155 L 76.0967,213.155 L 76.0967,213.155 L 75.7607,213.155 L 75.7607,213.155 L 75.7607,213.155 L 75.7607,213.155 L 75.7607,212.819 L 75.7607,212.819 L 75.4247,212.819 L 75.4247,212.819 L 75.4247,212.819 L 75.4247,212.819 L 75.4247,212.819 L 75.4247,212.819 L 75.4247,212.819 L 75.0887,212.819 L 75.0887,212.819"
       id="path66"
       style="fill:none;stroke:#000000;stroke-width:0.93333298;stroke-linejoin:round" />
    <path
       d="M 108.686,229.956 L 107.007,230.292 L 105.999,231.971 L 105.327,232.979 L 104.991,234.659 L 104.319,237.346 L 104.319,239.698 L 104.991,240.706 L 105.999,241.042 L 107.007,241.042 L 108.686,240.706 L 109.694,239.026 L 110.366,238.018 L 110.702,236.339 L 111.378,233.651 L 111.378,231.635 L 110.702,230.292 L 109.694,229.956 L 108.686,229.956 L 107.679,230.292 L 106.671,231.971"
       id="path68"
       style="fill:none;stroke:#000000;stroke-width:0.93333298;stroke-linejoin:round" />
    <path
       d="M 106.671,231.971 L 105.999,232.979 L 105.327,234.659 L 104.991,237.346 L 104.991,239.698 L 105.327,240.706 L 105.999,241.042 M 107.007,241.042 L 108.015,240.706 L 109.358,239.026 L 109.694,238.018 L 110.366,236.339 L 110.702,233.651 L 110.702,231.635 L 110.366,230.292 L 109.694,229.956 M 105.327,235.331 L 110.366,235.331"
       id="path70"
       style="fill:none;stroke:#000000;stroke-width:0.93333298;stroke-linejoin:round" />
    <path
       d="M 44.5107,327.057 L 44.5107,418.788 L 182.272,418.788 M 350.944,327.057 L 350.944,357.635 M 350.944,388.21 L 350.944,418.788 L 213.183,418.788 M 197.729,434.245 L 197.729,495.393 M 368.081,362.003 L 368.081,362.003 L 368.081,362.339 L 368.081,362.339 L 368.081,362.339 L 367.745,362.339 L 367.745,362.674 L 367.745,362.674 L 367.745,362.674 L 367.745,362.674 L 367.745,362.674 L 367.745,363.01 L 367.409,363.01 L 367.409,363.01 L 367.409,363.01 L 367.409,363.346 L 367.409,363.346 L 367.409,363.346 L 367.073,363.346 L 367.073,363.346 L 367.073,363.682 L 367.073,363.682 L 367.073,363.682 L 366.737,363.682 L 366.737,363.682 L 366.737,364.018 L 366.737,364.018 L 366.737,364.018 L 366.737,364.018 L 366.401,364.018 L 366.401,364.354 L 366.401,364.354 L 366.401,364.354 L 366.401,364.354 L 366.065,364.354 L 366.065,364.69 L 366.065,364.69 L 366.065,364.69 L 366.065,364.69 L 365.729,364.69 L 365.729,364.69 L 365.729,365.026 L 365.729,365.026 L 365.393,365.026 L 365.393,365.026 L 365.393,365.026 L 365.393,365.026 L 365.393,365.362 L 365.058,365.362 L 365.058,365.362 L 365.058,365.362 L 365.058,365.362 L 364.722,365.362 L 364.722,365.362 L 364.722,365.698 L 364.722,365.698 L 364.386,365.698 L 364.386,365.698 L 364.386,365.698 L 364.386,365.698 L 364.386,365.698 L 364.05,365.698 L 364.05,366.034 L 364.05,366.034 L 364.05,366.034 L 363.714,366.034 L 363.714,366.034 L 363.714,366.034 L 363.714,366.034 L 363.378,366.034 L 363.378,366.034 L 363.378,366.37 L 363.042,366.37 L 363.042,366.37 L 363.042,366.37 L 363.042,366.37 L 362.702,366.37 L 362.702,366.37 L 362.702,366.37 L 362.702,366.37 L 362.366,366.37 L 362.366,366.37 L 362.366,366.37 L 362.366,366.706 L 362.03,366.706 L 362.03,366.706 L 362.03,366.706 L 362.03,366.706 L 361.694,366.706 L 361.694,366.706 L 361.694,366.706 L 361.694,366.706 L 361.358,366.706 L 361.358,366.706 L 361.358,366.706 L 361.022,366.706 L 361.022,366.706 L 361.022,366.706 L 361.022,366.706 L 360.686,366.706 L 360.686,366.706 L 360.686,366.706 L 360.686,366.706 L 360.35,366.706 L 360.35,366.706 L 360.35,366.706 L 360.015,366.706 L 360.015,366.706 L 360.015,366.706 L 360.015,366.706 L 359.679,366.706 L 359.679,366.706 L 359.679,366.706 L 359.343,366.706 L 359.343,366.706 L 359.343,366.706 L 359.343,366.706 L 359.007,366.706 L 359.007,366.706 L 359.007,366.706 L 359.007,366.706 L 358.671,366.706 L 358.671,366.706 L 358.671,366.706 L 358.335,366.706 L 358.335,366.706 L 358.335,366.706 L 358.335,366.706 L 357.999,366.706 L 357.999,366.706 L 357.999,366.706 L 357.999,366.706 L 357.663,366.37 L 357.663,366.37 L 357.663,366.37 L 357.663,366.37 L 357.327,366.37 L 357.327,366.37 L 357.327,366.37 L 357.327,366.37 L 356.991,366.37 L 356.991,366.37 L 356.991,366.37 L 356.991,366.37 L 356.655,366.034 L 356.655,366.034 L 356.655,366.034 L 356.319,366.034 L 356.319,366.034 L 356.319,366.034 L 356.319,366.034 L 355.983,366.034 L 355.983,366.034 L 355.983,366.034 L 355.983,365.698 L 355.983,365.698 L 355.647,365.698 L 355.647,365.698 L 355.647,365.698 L 355.647,365.698 L 355.311,365.698 L 355.311,365.362 L 355.311,365.362 L 355.311,365.362 L 354.976,365.362 L 354.976,365.362 L 354.976,365.362 L 354.976,365.362 L 354.64,365.026 L 354.64,365.026 L 354.64,365.026 L 354.64,365.026 L 354.64,365.026 L 354.304,365.026 L 354.304,364.69 L 354.304,364.69 L 354.304,364.69 L 353.968,364.69 L 353.968,364.69 L 353.968,364.69 L 353.968,364.354 L 353.968,364.354 L 353.632,364.354 L 353.632,364.354 L 353.632,364.354 L 353.632,364.018 L 353.632,364.018 L 353.632,364.018 L 353.296,364.018 L 353.296,364.018 L 353.296,363.682 L 353.296,363.682 L 353.296,363.682 L 352.96,363.682 L 352.96,363.682 L 352.96,363.346 L 352.96,363.346 L 352.96,363.346 L 352.96,363.346 L 352.624,363.346 L 352.624,363.01 L 352.624,363.01 L 352.624,363.01 L 352.624,363.01 L 352.624,362.674 L 352.288,362.674 L 352.288,362.674 L 352.288,362.674 L 352.288,362.674 L 352.288,362.339 L 352.288,362.339 L 352.288,362.339 L 351.952,362.339 L 351.952,362.003 L 351.952,362.003 L 351.952,362.003 L 351.952,362.003 L 351.952,361.667 L 351.952,361.667 L 351.616,361.667 L 351.616,361.667 L 351.616,361.331 L 351.616,361.331 L 351.616,361.331 L 351.616,361.331 L 351.616,360.995 L 351.616,360.995 L 351.616,360.995 L 351.616,360.995 L 351.28,360.659 L 351.28,360.659 L 351.28,360.659 L 351.28,360.659 L 351.28,360.323 L 351.28,360.323 L 351.28,360.323 L 351.28,360.323 L 351.28,359.987 L 351.28,359.987 L 351.28,359.987 L 351.28,359.987 L 351.28,359.651 L 350.944,359.651 L 350.944,359.651 L 350.944,359.315 L 350.944,359.315 L 350.944,359.315 L 350.944,359.315 L 350.944,358.979 L 350.944,358.979 L 350.944,358.979 L 350.944,358.979 L 350.944,358.643 L 350.944,358.643 L 350.944,358.643 L 350.944,358.307 L 350.944,358.307 L 350.944,358.307 L 350.944,358.307 L 350.944,357.971 L 350.944,357.971 L 350.944,357.971 L 350.944,357.971 L 350.944,357.635 L 350.944,357.635 M 368.081,383.842 L 368.081,383.842 L 368.081,383.842 L 368.081,383.507 L 368.081,383.507 L 367.745,383.507 L 367.745,383.507 L 367.745,383.171 L 367.745,383.171 L 367.745,383.171 L 367.745,383.171 L 367.745,383.171 L 367.409,382.835 L 367.409,382.835 L 367.409,382.835 L 367.409,382.835"
       id="path72"
       style="fill:none;stroke:#000000;stroke-width:1.39999998;stroke-linejoin:round" />
    <path
       d="M 367.409,382.835 L 367.409,382.499 L 367.409,382.499 L 367.073,382.499 L 367.073,382.499 L 367.073,382.499 L 367.073,382.163 L 367.073,382.163 L 366.737,382.163 L 366.737,382.163 L 366.737,382.163 L 366.737,381.827 L 366.737,381.827 L 366.737,381.827 L 366.401,381.827 L 366.401,381.491 L 366.401,381.491 L 366.401,381.491 L 366.401,381.491 L 366.065,381.491 L 366.065,381.491 L 366.065,381.155 L 366.065,381.155 L 366.065,381.155 L 365.729,381.155 L 365.729,381.155 L 365.729,381.155 L 365.729,380.819 L 365.393,380.819 L 365.393,380.819 L 365.393,380.819 L 365.393,380.819 L 365.393,380.819 L 365.058,380.483 L 365.058,380.483 L 365.058,380.483 L 365.058,380.483 L 364.722,380.483 L 364.722,380.483 L 364.722,380.483 L 364.722,380.147 L 364.386,380.147 L 364.386,380.147 L 364.386,380.147 L 364.386,380.147 L 364.386,380.147 L 364.05,380.147 L 364.05,380.147 L 364.05,379.811 L 364.05,379.811 L 363.714,379.811 L 363.714,379.811 L 363.714,379.811 L 363.714,379.811 L 363.378,379.811 L 363.378,379.811 L 363.378,379.811 L 363.042,379.475 L 363.042,379.475 L 363.042,379.475 L 363.042,379.475 L 362.702,379.475 L 362.702,379.475 L 362.702,379.475 L 362.702,379.475 L 362.366,379.475 L 362.366,379.475 L 362.366,379.475 L 362.366,379.475 L 362.03,379.139 L 362.03,379.139 L 362.03,379.139 L 362.03,379.139 L 361.694,379.139 L 361.694,379.139 L 361.694,379.139 L 361.694,379.139 L 361.358,379.139 L 361.358,379.139 L 361.358,379.139 L 361.022,379.139 L 361.022,379.139 L 361.022,379.139 L 361.022,379.139 L 360.686,379.139 L 360.686,379.139 L 360.686,379.139 L 360.686,379.139 L 360.35,379.139 L 360.35,379.139 L 360.35,379.139 L 360.015,379.139 L 360.015,379.139 L 360.015,379.139 L 360.015,379.139 L 359.679,379.139 L 359.679,379.139 L 359.679,379.139 L 359.343,379.139 L 359.343,379.139 L 359.343,379.139 L 359.343,379.139 L 359.007,379.139 L 359.007,379.139 L 359.007,379.139 L 359.007,379.139 L 358.671,379.139 L 358.671,379.139 L 358.671,379.139 L 358.335,379.139 L 358.335,379.139 L 358.335,379.139 L 358.335,379.139 L 357.999,379.139 L 357.999,379.139 L 357.999,379.139 L 357.999,379.475 L 357.663,379.475 L 357.663,379.475 L 357.663,379.475 L 357.663,379.475 L 357.327,379.475 L 357.327,379.475 L 357.327,379.475 L 357.327,379.475 L 356.991,379.475 L 356.991,379.475 L 356.991,379.475 L 356.991,379.811 L 356.655,379.811 L 356.655,379.811 L 356.655,379.811 L 356.319,379.811 L 356.319,379.811 L 356.319,379.811 L 356.319,379.811 L 355.983,379.811 L 355.983,380.147 L 355.983,380.147 L 355.983,380.147 L 355.983,380.147 L 355.647,380.147 L 355.647,380.147 L 355.647,380.147 L 355.647,380.147 L 355.311,380.483 L 355.311,380.483 L 355.311,380.483 L 355.311,380.483 L 354.976,380.483 L 354.976,380.483 L 354.976,380.483 L 354.976,380.819 L 354.64,380.819 L 354.64,380.819 L 354.64,380.819 L 354.64,380.819 L 354.64,380.819 L 354.304,381.155 L 354.304,381.155 L 354.304,381.155 L 354.304,381.155 L 353.968,381.155 L 353.968,381.155 L 353.968,381.491 L 353.968,381.491 L 353.968,381.491 L 353.632,381.491 L 353.632,381.491 L 353.632,381.491 L 353.632,381.827 L 353.632,381.827 L 353.632,381.827 L 353.296,381.827 L 353.296,381.827 L 353.296,382.163 L 353.296,382.163 L 353.296,382.163 L 352.96,382.163 L 352.96,382.163 L 352.96,382.499 L 352.96,382.499 L 352.96,382.499 L 352.96,382.499 L 352.624,382.835 L 352.624,382.835 L 352.624,382.835 L 352.624,382.835 L 352.624,382.835 L 352.624,383.171 L 352.288,383.171 L 352.288,383.171 L 352.288,383.171 L 352.288,383.507 L 352.288,383.507 L 352.288,383.507 L 352.288,383.507 L 351.952,383.842 L 351.952,383.842 L 351.952,383.842 L 351.952,383.842 L 351.952,383.842 L 351.952,384.178 L 351.952,384.178 L 351.616,384.178 L 351.616,384.178 L 351.616,384.514 L 351.616,384.514 L 351.616,384.514 L 351.616,384.514 L 351.616,384.85 L 351.616,384.85 L 351.616,384.85 L 351.616,384.85 L 351.28,385.186 L 351.28,385.186 L 351.28,385.186 L 351.28,385.522 L 351.28,385.522 L 351.28,385.522 L 351.28,385.522 L 351.28,385.858 L 351.28,385.858 L 351.28,385.858 L 351.28,385.858 L 351.28,386.194 L 351.28,386.194 L 350.944,386.194 L 350.944,386.194 L 350.944,386.53 L 350.944,386.53 L 350.944,386.53 L 350.944,386.53 L 350.944,386.866 L 350.944,386.866 L 350.944,386.866 L 350.944,387.202 L 350.944,387.202 L 350.944,387.202 L 350.944,387.202 L 350.944,387.538 L 350.944,387.538 L 350.944,387.538 L 350.944,387.538 L 350.944,387.874 L 350.944,387.874 L 350.944,387.874 L 350.944,388.21 L 350.944,388.21 L 350.944,388.21 M 368.081,362.003 L 368.417,362.003 L 368.417,361.667 L 368.417,361.667 L 368.753,361.667 L 368.753,361.331 L 368.753,361.331 L 369.089,360.995 L 369.089,360.995 L 369.089,360.659 L 369.425,360.659 L 369.425,360.659 L 369.425,360.323 L 369.761,360.323 L 369.761,359.987 L 370.097,359.987 L 370.097,359.987 L 370.097,359.651 L 370.433,359.651 L 370.433,359.651 L 370.768,359.315 L 370.768,359.315 L 370.768,358.979 L 371.104,358.979 L 371.104,358.979 L 371.44,358.643 L 371.44,358.643 L 371.44,358.643 L 371.776,358.307 L 371.776,358.307 L 372.112,358.307 L 372.112,357.971 L 372.448,357.971 L 372.448,357.971 L 372.784,357.635 L 372.784,357.635 L 372.784,357.635 L 373.12,357.635 L 373.12,357.299 L 373.456,357.299 L 373.456,357.299 L 373.792,356.964 L 373.792,356.964 L 374.128,356.964 L 374.128,356.964 L 374.464,356.628 L 374.464,356.628 L 374.8,356.628 L 374.8,356.628 L 375.136,356.292 L 375.136,356.292 L 375.472,356.292"
       id="path74"
       style="fill:none;stroke:#000000;stroke-width:1.39999998;stroke-linejoin:round" />
    <path
       d="M 375.472,356.292 L 375.472,356.292 L 375.808,355.956 L 375.808,355.956 L 376.143,355.956 L 376.143,355.956 L 376.479,355.956 L 376.479,355.62 L 376.815,355.62 L 376.815,355.62 L 377.151,355.62 L 377.151,355.62 L 377.487,355.284 L 377.487,355.284 L 377.823,355.284 L 377.823,355.284 L 378.159,355.284 L 378.159,355.284 L 378.495,355.284 L 378.495,354.948 L 378.831,354.948 L 379.167,354.948 L 379.167,354.948 L 379.503,354.948 L 379.503,354.948 L 379.839,354.948 L 379.839,354.948 L 380.175,354.948 L 380.175,354.612 L 380.511,354.612 L 380.511,354.612 L 380.847,354.612 L 380.847,354.612 L 381.183,354.612 L 381.518,354.612 L 381.518,354.612 L 381.854,354.612 L 381.854,354.612 L 382.19,354.612 L 382.19,354.612 L 382.526,354.612 L 382.526,354.612 L 382.862,354.612 L 382.862,354.612 L 383.198,354.612 L 383.534,354.612 L 383.534,354.612 L 383.874,354.612 L 383.874,354.612 L 384.21,354.612 L 384.21,354.612 L 384.546,354.612 L 384.546,354.612 L 384.882,354.612 L 384.882,354.612 L 385.218,354.612 L 385.554,354.612 L 385.554,354.612 L 385.89,354.612 L 385.89,354.948 L 386.226,354.948 L 386.226,354.948 L 386.561,354.948 L 386.561,354.948 L 386.897,354.948 L 386.897,354.948 L 387.233,354.948 L 387.233,354.948 L 387.569,355.284 L 387.569,355.284 L 387.905,355.284 L 388.241,355.284 L 388.241,355.284 L 388.577,355.284 L 388.577,355.284 L 388.913,355.62 L 388.913,355.62 L 389.249,355.62 L 389.249,355.62 L 389.585,355.62 L 389.585,355.956 L 389.921,355.956 L 389.921,355.956 L 390.257,355.956 L 390.257,355.956 L 390.593,356.292 L 390.593,356.292 L 390.929,356.292 L 390.929,356.292 L 391.265,356.628 L 391.265,356.628 L 391.6,356.628 L 391.6,356.628 L 391.936,356.964 L 391.936,356.964 L 392.272,356.964 L 392.272,356.964 L 392.608,357.299 L 392.608,357.299 L 392.944,357.299 L 392.944,357.635 L 392.944,357.635 L 393.28,357.635 L 393.28,357.635 L 393.616,357.971 L 393.616,357.971 L 393.952,357.971 L 393.952,358.307 L 394.288,358.307 L 394.288,358.307 L 394.288,358.643 L 394.624,358.643 L 394.624,358.643 L 394.96,358.979 L 394.96,358.979 L 395.296,358.979 L 395.296,359.315 L 395.296,359.315 L 395.632,359.315 L 395.632,359.651 L 395.968,359.651 L 395.968,359.987 L 395.968,359.987 L 396.304,359.987 L 396.304,360.323 L 396.304,360.323 L 396.64,360.659 L 396.64,360.659 L 396.976,360.659 L 396.976,360.995 L 396.976,360.995 L 397.311,361.331 L 397.311,361.331 L 397.311,361.667 L 397.647,361.667 L 397.647,361.667 L 397.647,362.003 L 397.983,362.003 L 397.983,362.339 L 397.983,362.339 L 398.319,362.674 L 398.319,362.674 L 398.319,362.674 L 398.655,363.01 L 398.655,363.01 L 398.655,363.346 L 398.655,363.346 L 398.991,363.682 L 398.991,363.682 L 398.991,364.018 L 398.991,364.018 L 399.327,364.354 L 399.327,364.354 L 399.327,364.69 L 399.663,364.69 L 399.663,365.026 L 399.663,365.026 L 399.663,365.362 L 399.663,365.362 L 399.999,365.698 L 399.999,365.698 L 399.999,366.034 L 399.999,366.034 L 399.999,366.37 L 400.335,366.37 L 400.335,366.706 L 400.335,366.706 L 400.335,367.042 L 400.335,367.042 L 400.671,367.378 L 400.671,367.378 L 400.671,367.714 L 400.671,367.714 L 400.671,368.049 L 400.671,368.049 L 400.671,368.385 L 401.007,368.385 L 401.007,368.721 L 401.007,369.057 L 401.007,369.057 L 401.007,369.393 L 401.007,369.393 L 401.007,369.729 L 401.007,369.729 L 401.007,370.065 L 401.343,370.065 L 401.343,370.405 L 401.343,370.405 L 401.343,370.741 L 401.343,370.741 L 401.343,371.077 L 401.343,371.413 L 401.343,371.413 L 401.343,371.749 L 401.343,371.749 L 401.343,372.085 L 401.343,372.085 L 401.343,372.421 L 401.343,372.421 L 401.343,372.757 L 401.343,372.757 L 401.343,373.092 L 401.343,373.428 L 401.343,373.428 L 401.343,373.764 L 401.343,373.764 L 401.343,374.1 L 401.343,374.1 L 401.343,374.436 L 401.343,374.436 L 401.343,374.772 L 401.343,375.108 L 401.343,375.108 L 401.343,375.444 L 401.343,375.444 L 401.343,375.78 L 401.343,375.78 L 401.007,376.116 L 401.007,376.116 L 401.007,376.452 L 401.007,376.452 L 401.007,376.788 L 401.007,376.788 L 401.007,377.124 L 401.007,377.46 L 401.007,377.46 L 400.671,377.796 L 400.671,377.796 L 400.671,378.131 L 400.671,378.131 L 400.671,378.467 L 400.671,378.467 L 400.335,378.803 L 400.335,378.803 L 400.335,379.139 L 400.335,379.139 L 400.335,379.475 L 400.335,379.475 L 399.999,379.811 L 399.999,379.811 L 399.999,380.147 L 399.999,380.147 L 399.663,380.483 L 399.663,380.483 L 399.663,380.819 L 399.663,380.819 L 399.663,381.155 L 399.327,381.155 L 399.327,381.491 L 399.327,381.491 L 399.327,381.827 L 398.991,381.827 L 398.991,382.163 L 398.991,382.163 L 398.655,382.499 L 398.655,382.499 L 398.655,382.835 L 398.655,382.835 L 398.319,383.171 L 398.319,383.171 L 398.319,383.171 L 397.983,383.507 L 397.983,383.507 L 397.983,383.842 L 397.647,383.842 L 397.647,384.178 L 397.647,384.178 L 397.311,384.178 L 397.311,384.514 L 397.311,384.514 L 396.976,384.85 L 396.976,384.85 L 396.976,385.186 L 396.64,385.186 L 396.64,385.186 L 396.64,385.522 L 396.304,385.522 L 396.304,385.858 L 395.968,385.858 L 395.968,385.858 L 395.968,386.194 L 395.632,386.194 L 395.632,386.194 L 395.296,386.53 L 395.296,386.53 L 395.296,386.866 L 394.96,386.866 L 394.96,386.866 L 394.624,387.202 L 394.624,387.202 L 394.624,387.202 L 394.288,387.538 L 394.288,387.538 L 393.952,387.538 L 393.952,387.874 L 393.616,387.874 L 393.616,387.874 L 393.28,388.21 L 393.28,388.21 L 393.28,388.21 L 392.944,388.546"
       id="path76"
       style="fill:none;stroke:#000000;stroke-width:1.39999998;stroke-linejoin:round" />
    <path
       d="M 392.944,388.546 L 392.944,388.546 L 392.608,388.546 L 392.608,388.546 L 392.272,388.881 L 392.272,388.881 L 391.936,388.881 L 391.936,389.217 L 391.6,389.217 L 391.6,389.217 L 391.265,389.217 L 391.265,389.553 L 390.929,389.553 L 390.929,389.553 L 390.593,389.553 L 390.593,389.553 L 390.257,389.889 L 390.257,389.889 L 389.921,389.889 L 389.921,389.889 L 389.585,390.225 L 389.585,390.225 L 389.249,390.225 L 389.249,390.225 L 388.913,390.225 L 388.913,390.225 L 388.577,390.561 L 388.577,390.561 L 388.241,390.561 L 388.241,390.561 L 387.905,390.561 L 387.905,390.561 L 387.569,390.897 L 387.569,390.897 L 387.233,390.897 L 387.233,390.897 L 386.897,390.897 L 386.897,390.897 L 386.561,390.897 L 386.226,390.897 L 386.226,390.897 L 385.89,391.233 L 385.89,391.233 L 385.554,391.233 L 385.554,391.233 L 385.218,391.233 L 385.218,391.233 L 384.882,391.233 L 384.882,391.233 L 384.546,391.233 L 384.21,391.233 L 384.21,391.233 L 383.874,391.233 L 383.874,391.233 L 383.538,391.233 L 383.538,391.233 L 383.198,391.233 L 383.198,391.233 L 382.862,391.233 L 382.862,391.233 L 382.526,391.233 L 382.19,391.233 L 382.19,391.233 L 381.854,391.233 L 381.854,391.233 L 381.518,391.233 L 381.518,391.233 L 381.183,391.233 L 381.183,391.233 L 380.847,391.233 L 380.847,391.233 L 380.511,391.233 L 380.175,391.233 L 380.175,391.233 L 379.839,391.233 L 379.839,390.897 L 379.503,390.897 L 379.503,390.897 L 379.167,390.897 L 379.167,390.897 L 378.831,390.897 L 378.831,390.897 L 378.495,390.897 L 378.495,390.561 L 378.159,390.561 L 377.823,390.561 L 377.823,390.561 L 377.487,390.561 L 377.487,390.561 L 377.151,390.561 L 377.151,390.225 L 376.815,390.225 L 376.815,390.225 L 376.479,390.225 L 376.479,390.225 L 376.143,389.889 L 376.143,389.889 L 375.808,389.889 L 375.808,389.889 L 375.472,389.889 L 375.472,389.553 L 375.136,389.553 L 375.136,389.553 L 374.8,389.553 L 374.8,389.217 L 374.464,389.217 L 374.464,389.217 L 374.128,389.217 L 374.128,388.881 L 373.792,388.881 L 373.792,388.881 L 373.456,388.881 L 373.456,388.546 L 373.456,388.546 L 373.12,388.546 L 373.12,388.21 L 372.784,388.21 L 372.784,388.21 L 372.448,387.874 L 372.448,387.874 L 372.112,387.874 L 372.112,387.874 L 372.112,387.538 L 371.776,387.538 L 371.776,387.202 L 371.44,387.202 L 371.44,387.202 L 371.104,386.866 L 371.104,386.866 L 371.104,386.866 L 370.768,386.53 L 370.768,386.53 L 370.433,386.53 L 370.433,386.194 L 370.097,386.194 L 370.097,386.194 L 370.097,385.858 L 369.761,385.858 L 369.761,385.522 L 369.761,385.522 L 369.425,385.522 L 369.425,385.186 L 369.089,385.186 L 369.089,384.85 L 369.089,384.85 L 368.753,384.85 L 368.753,384.514 L 368.753,384.514 L 368.417,384.178 L 368.417,384.178 L 368.417,383.842 L 368.081,383.842"
       id="path78"
       style="fill:none;stroke:#000000;stroke-width:1.39999998;stroke-linejoin:round" />
    <path
       d="M 378.159,369.057 L 376.479,376.116 M 378.159,369.057 L 377.151,376.116 M 373.456,370.065 L 374.464,369.057 L 376.143,368.385 L 381.854,368.385 M 373.456,370.065 L 374.464,369.393 L 376.143,369.057 L 381.854,369.057"
       id="path80"
       style="fill:none;stroke:#000000;stroke-width:0.93333298;stroke-linejoin:round" />
    <path
       d="M 385.89,374.436 L 384.882,374.772 L 384.21,375.78 L 384.21,377.46 L 384.21,378.131 L 384.21,379.811 L 384.882,380.819 L 385.89,381.155 L 386.561,381.155 L 387.569,380.819 L 388.241,379.811 L 388.577,378.131 L 388.577,377.46 L 388.241,375.78 L 387.569,374.772 L 386.561,374.436 L 385.89,374.436 L 385.218,374.772 L 384.882,375.108 L 384.882,375.78 L 384.21,377.46 L 384.21,378.131 L 384.882,379.811 L 384.882,380.483 L 385.218,380.819 L 385.89,381.155 M 386.561,381.155 L 387.233,380.819 L 387.569,380.483 L 387.905,379.811 L 388.241,378.131 L 388.241,377.46 L 387.905,375.78 L 387.569,375.108 L 387.233,374.772 L 386.561,374.436"
       id="path82"
       style="fill:none;stroke:#000000;stroke-width:0.93333298;stroke-linejoin:round" />
    <path
       d="M 213.183,418.788 L 212.847,418.788 L 212.847,418.452 L 212.847,418.452 L 212.847,418.452 L 212.847,418.116 L 212.847,418.116 L 212.847,417.78 L 212.847,417.78 L 212.847,417.444 L 212.847,417.444 L 212.847,417.108 L 212.847,417.108 L 212.847,416.772 L 212.847,416.772 L 212.847,416.772 L 212.847,416.436 L 212.847,416.436 L 212.847,416.1 L 212.847,416.1 L 212.847,415.764 L 212.847,415.764 L 212.511,415.428 L 212.511,415.428 L 212.511,415.092 L 212.511,415.092 L 212.511,415.092 L 212.511,414.757 L 212.511,414.757 L 212.511,414.421 L 212.175,414.421 L 212.175,414.085 L 212.175,414.085 L 212.175,414.085 L 212.175,413.749 L 212.175,413.749 L 212.175,413.413 L 211.839,413.413 L 211.839,413.077 L 211.839,413.077 L 211.839,413.077 L 211.839,412.741 L 211.839,412.741 L 211.503,412.405 L 211.503,412.405 L 211.503,412.405 L 211.503,412.065 L 211.503,412.065 L 211.167,411.729 L 211.167,411.729 L 211.167,411.393 L 211.167,411.393 L 210.831,411.393 L 210.831,411.057 L 210.831,411.057 L 210.831,411.057 L 210.831,410.721 L 210.495,410.721 L 210.495,410.385 L 210.495,410.385 L 210.495,410.385 L 210.159,410.049 L 210.159,410.049 L 210.159,409.714 L 209.823,409.714 L 209.823,409.714 L 209.823,409.378 L 209.823,409.378 L 209.487,409.378 L 209.487,409.042 L 209.487,409.042 L 209.151,409.042 L 209.151,408.706 L 209.151,408.706 L 209.151,408.706 L 208.815,408.37 L 208.815,408.37 L 208.815,408.37 L 208.479,408.034 L 208.479,408.034 L 208.479,408.034 L 208.143,407.698 L 208.143,407.698 L 208.143,407.698 L 207.808,407.362 L 207.808,407.362 L 207.808,407.362 L 207.472,407.026 L 207.472,407.026 L 207.472,407.026 L 207.136,407.026 L 207.136,406.69 L 207.136,406.69 L 206.8,406.69 L 206.8,406.69 L 206.464,406.354 L 206.464,406.354 L 206.464,406.354 L 206.128,406.018 L 206.128,406.018 L 206.128,406.018 L 205.792,406.018 L 205.792,405.682 L 205.456,405.682 L 205.456,405.682 L 205.456,405.682 L 205.12,405.682 L 205.12,405.346"
       id="path84"
       style="fill:none;stroke:#000000;stroke-width:2.33332992;stroke-linejoin:round" />
    <path
       d="M 205.12,405.346 L 204.784,405.346 L 204.784,405.346 L 204.784,405.346 L 204.448,405.346 L 204.448,405.01 L 204.112,405.01 L 204.112,405.01 L 204.112,405.01 L 203.776,404.674 L 203.776,404.674 L 203.44,404.674 L 203.44,404.674 L 203.104,404.674 L 203.104,404.674 L 203.104,404.674 L 202.768,404.339 L 202.768,404.339 L 202.433,404.339 L 202.433,404.339 L 202.097,404.339 L 202.097,404.339 L 202.097,404.339 L 201.761,404.003 L 201.761,404.003 L 201.425,404.003 L 201.425,404.003 L 201.089,404.003 L 201.089,404.003 L 200.753,404.003 L 200.753,404.003 L 200.753,404.003 L 200.417,404.003 L 200.417,403.667 L 200.081,403.667 L 200.081,403.667 L 199.745,403.667 L 199.745,403.667 L 199.409,403.667 L 199.409,403.667 L 199.073,403.667 L 199.073,403.667 L 199.073,403.667 L 198.737,403.667 L 198.737,403.667 L 198.401,403.667 L 198.401,403.667 L 198.065,403.667 L 198.065,403.667 L 197.729,403.667 L 197.729,403.667 L 197.729,403.667 L 197.393,403.667 L 197.393,403.667 L 197.058,403.667 L 197.058,403.667 L 196.722,403.667 L 196.722,403.667 L 196.386,403.667 L 196.386,403.667 L 196.05,403.667 L 196.05,403.667 L 195.714,403.667 L 195.714,403.667 L 195.714,403.667 L 195.378,403.667 L 195.378,403.667 L 195.042,403.667 L 195.042,404.003 L 194.702,404.003 L 194.702,404.003 L 194.366,404.003 L 194.366,404.003 L 194.366,404.003 L 194.03,404.003 L 194.03,404.003 L 193.694,404.003 L 193.694,404.003 L 193.358,404.339 L 193.358,404.339 L 193.022,404.339 L 193.022,404.339 L 193.022,404.339 L 192.686,404.339 L 192.686,404.339 L 192.351,404.339 L 192.351,404.674 L 192.015,404.674 L 192.015,404.674 L 192.015,404.674 L 191.679,404.674 L 191.679,404.674 L 191.343,405.01 L 191.343,405.01 L 191.343,405.01 L 191.007,405.01 L 191.007,405.01 L 190.671,405.346 L 190.671,405.346 L 190.335,405.346 L 190.335,405.346 L 190.335,405.682 L 189.999,405.682 L 189.999,405.682 L 189.999,405.682 L 189.663,405.682 L 189.663,406.018 L 189.327,406.018 L 189.327,406.018 L 189.327,406.018 L 188.991,406.354 L 188.991,406.354 L 188.655,406.354 L 188.655,406.354 L 188.655,406.69 L 188.319,406.69 L 188.319,406.69 L 188.319,407.026 L 187.983,407.026 L 187.983,407.026 L 187.983,407.026 L 187.647,407.362 L 187.647,407.362 L 187.647,407.362 L 187.311,407.698 L 187.311,407.698 L 187.311,407.698 L 186.976,408.034 L 186.976,408.034 L 186.976,408.034 L 186.64,408.37 L 186.64,408.37 L 186.64,408.37 L 186.304,408.706 L 186.304,408.706 L 186.304,408.706 L 185.968,409.042 L 185.968,409.042 L 185.968,409.042 L 185.632,409.378 L 185.632,409.378 L 185.632,409.378 L 185.632,409.714 L 185.296,409.714 L 185.296,409.714 L 185.296,410.049 L 185.296,410.049 L 184.96,410.385 L 184.96,410.385 L 184.96,410.385 L 184.96,410.721 L 184.624,410.721 L 184.624,410.721 L 184.624,411.057 L 184.624,411.057 L 184.288,411.393 L 184.288,411.393 L 184.288,411.393 L 184.288,411.729 L 184.288,411.729 L 183.952,412.065 L 183.952,412.065 L 183.952,412.065 L 183.952,412.405 L 183.952,412.405 L 183.616,412.741 L 183.616,412.741 L 183.616,412.741 L 183.616,413.077 L 183.616,413.077 L 183.28,413.413 L 183.28,413.413 L 183.28,413.749 L 183.28,413.749 L 183.28,413.749 L 183.28,414.085 L 183.28,414.085 L 182.944,414.421 L 182.944,414.421 L 182.944,414.757 L 182.944,414.757 L 182.944,415.092 L 182.944,415.092 L 182.944,415.092 L 182.944,415.428 L 182.608,415.428 L 182.608,415.764 L 182.608,415.764 L 182.608,416.1 L 182.608,416.1 L 182.608,416.436 L 182.608,416.436 L 182.608,416.436 L 182.608,416.772 L 182.608,416.772 L 182.608,417.108 L 182.608,417.108 L 182.608,417.444 L 182.272,417.444 L 182.272,417.78 L 182.272,417.78 L 182.272,418.116 L 182.272,418.116 L 182.272,418.116 L 182.272,418.452 L 182.272,418.452 L 182.272,418.788 L 182.272,418.788 L 182.272,419.124 L 182.272,419.124 L 182.272,419.46 L 182.272,419.46 L 182.272,419.796 L 182.272,419.796 L 182.272,419.796 L 182.272,420.131 L 182.272,420.131 L 182.608,420.467 L 182.608,420.467 L 182.608,420.803 L 182.608,420.803 L 182.608,421.139 L 182.608,421.139 L 182.608,421.475 L 182.608,421.475 L 182.608,421.475 L 182.608,421.811 L 182.608,421.811 L 182.608,422.147 L 182.608,422.147 L 182.944,422.483 L 182.944,422.483 L 182.944,422.819 L 182.944,422.819 L 182.944,422.819 L 182.944,423.155 L 182.944,423.155 L 182.944,423.491 L 182.944,423.491 L 183.28,423.827 L 183.28,423.827 L 183.28,423.827 L 183.28,424.163 L 183.28,424.163 L 183.28,424.499 L 183.616,424.499 L 183.616,424.835 L 183.616,424.835 L 183.616,424.835 L 183.616,425.171 L 183.616,425.171 L 183.952,425.507 L 183.952,425.507 L 183.952,425.507 L 183.952,425.842 L 183.952,425.842 L 184.288,426.178 L 184.288,426.178 L 184.288,426.514 L 184.288,426.514 L 184.624,426.514 L 184.624,426.85 L 184.624,426.85 L 184.624,427.186 L 184.96,427.186 L 184.96,427.186 L 184.96,427.522 L 184.96,427.522 L 185.296,427.522 L 185.296,427.858 L 185.296,427.858 L 185.296,427.858 L 185.632,428.194 L 185.632,428.194 L 185.632,428.53 L 185.632,428.53 L 185.968,428.53 L 185.968,428.866 L 185.968,428.866 L 186.304,428.866 L 186.304,429.202 L 186.304,429.202 L 186.64,429.202 L 186.64,429.538 L 186.64,429.538 L 186.64,429.538 L 186.976,429.874 L 186.976,429.874 L 186.976,429.874 L 187.311,430.21 L 187.311,430.21 L 187.311,430.21 L 187.647,430.21 L 187.647,430.546 L 187.647,430.546 L 187.983,430.546 L 187.983,430.881 L 187.983,430.881 L 188.319,430.881 L 188.319,431.217 L 188.655,431.217"
       id="path86"
       style="fill:none;stroke:#000000;stroke-width:2.33332992;stroke-linejoin:round" />
    <path
       d="M 188.655,431.217 L 188.655,431.217 L 188.655,431.217 L 188.991,431.553 L 188.991,431.553 L 188.991,431.553 L 189.327,431.553 L 189.327,431.889 L 189.663,431.889 L 189.663,431.889 L 189.663,431.889 L 189.999,432.225 L 189.999,432.225 L 190.335,432.225 L 190.335,432.225 L 190.335,432.225 L 190.671,432.561 L 190.671,432.561 L 191.007,432.561 L 191.007,432.561 L 191.007,432.561 L 191.343,432.897 L 191.343,432.897 L 191.679,432.897 L 191.679,432.897 L 192.015,432.897 L 192.015,433.233 L 192.015,433.233 L 192.351,433.233 L 192.351,433.233 L 192.686,433.233 L 192.686,433.233 L 192.686,433.573 L 193.022,433.573 L 193.022,433.573 L 193.358,433.573 L 193.358,433.573 L 193.694,433.573 L 193.694,433.573 L 193.694,433.573 L 194.03,433.909 L 194.03,433.909 L 194.366,433.909 L 194.366,433.909 L 194.702,433.909 L 194.702,433.909 L 195.042,433.909 L 195.042,433.909 L 195.042,433.909 L 195.378,433.909 L 195.378,433.909 L 195.714,434.245 L 195.714,434.245 L 196.05,434.245 L 196.05,434.245 L 196.386,434.245 L 196.386,434.245 L 196.722,434.245 L 196.722,434.245 L 197.058,434.245 L 197.058,434.245 L 197.058,434.245 L 197.393,434.245 L 197.393,434.245 L 197.729,434.245 L 197.729,434.245 L 198.065,434.245 L 198.065,434.245 L 198.401,434.245 L 198.401,434.245 L 198.401,434.245 L 198.737,434.245 L 198.737,434.245 L 199.073,434.245 L 199.073,434.245 L 199.409,434.245 L 199.409,434.245 L 199.745,434.245 L 199.745,434.245 L 200.081,433.909 L 200.081,433.909 L 200.417,433.909 L 200.417,433.909 L 200.417,433.909 L 200.753,433.909 L 200.753,433.909 L 201.089,433.909 L 201.089,433.909 L 201.425,433.909 L 201.425,433.573 L 201.761,433.573 L 201.761,433.573 L 201.761,433.573 L 202.097,433.573 L 202.097,433.573 L 202.433,433.573 L 202.433,433.573 L 202.768,433.233 L 202.768,433.233 L 202.768,433.233 L 203.104,433.233 L 203.104,433.233 L 203.44,433.233 L 203.44,433.233 L 203.776,432.897 L 203.776,432.897 L 203.776,432.897 L 204.112,432.897 L 204.112,432.897 L 204.448,432.561 L 204.448,432.561 L 204.448,432.561 L 204.784,432.561 L 204.784,432.561 L 205.12,432.225 L 205.12,432.225 L 205.12,432.225 L 205.456,432.225 L 205.456,431.889 L 205.792,431.889 L 205.792,431.889 L 205.792,431.889 L 206.128,431.889 L 206.128,431.553 L 206.464,431.553 L 206.464,431.553 L 206.464,431.217 L 206.8,431.217 L 206.8,431.217 L 206.8,431.217 L 207.136,430.881 L 207.136,430.881 L 207.136,430.881 L 207.472,430.881 L 207.472,430.546 L 207.808,430.546 L 207.808,430.546 L 207.808,430.21 L 208.143,430.21 L 208.143,430.21 L 208.143,429.874 L 208.479,429.874 L 208.479,429.874 L 208.479,429.538 L 208.815,429.538 L 208.815,429.538 L 208.815,429.538 L 208.815,429.202 L 209.151,429.202 L 209.151,428.866 L 209.151,428.866 L 209.487,428.866 L 209.487,428.53 L 209.487,428.53 L 209.823,428.53 L 209.823,428.194 L 209.823,428.194 L 209.823,428.194 L 210.159,427.858 L 210.159,427.858 L 210.159,427.858 L 210.159,427.522 L 210.495,427.522 L 210.495,427.186 L 210.495,427.186 L 210.495,427.186 L 210.831,426.85 L 210.831,426.85 L 210.831,426.514 L 210.831,426.514 L 211.167,426.514 L 211.167,426.178 L 211.167,426.178 L 211.167,426.178 L 211.167,425.842 L 211.503,425.842 L 211.503,425.507 L 211.503,425.507 L 211.503,425.171 L 211.503,425.171 L 211.839,425.171 L 211.839,424.835 L 211.839,424.835 L 211.839,424.499 L 211.839,424.499 L 212.175,424.499 L 212.175,424.163 L 212.175,424.163 L 212.175,423.827 L 212.175,423.827 L 212.175,423.491 L 212.175,423.491 L 212.511,423.155 L 212.511,423.155 L 212.511,423.155 L 212.511,422.819 L 212.511,422.819 L 212.511,422.483 L 212.511,422.483 L 212.511,422.147 L 212.511,422.147 L 212.847,422.147 L 212.847,421.811 L 212.847,421.811 L 212.847,421.475 L 212.847,421.475 L 212.847,421.139 L 212.847,421.139 L 212.847,420.803 L 212.847,420.803 L 212.847,420.467 L 212.847,420.467 L 212.847,420.467 L 212.847,420.131 L 212.847,420.131 L 212.847,419.796 L 212.847,419.796 L 212.847,419.46 L 212.847,419.46 L 212.847,419.124 L 212.847,419.124 L 212.847,418.788 M 191.679,425.171 L 203.776,412.741 M 191.679,412.741 L 203.776,425.171"
       id="path88"
       style="fill:none;stroke:#000000;stroke-width:2.33332992;stroke-linejoin:round" />
    <path
       d="M 18.3037,428.866 L 19.9827,440.292 M 18.9757,428.866 L 20.3187,438.612 M 26.0297,428.866 L 19.9827,440.292 M 17.2957,428.866 L 20.6547,428.866 M 23.6787,428.866 L 27.0417,428.866"
       id="path90"
       style="fill:none;stroke:#000000;stroke-width:0.93333298;stroke-linejoin:round" />
    <path
       d="M 29.7287,439.956 L 30.4007,439.62 L 31.4087,438.612 L 31.4087,445.667 M 31.0727,438.948 L 31.0727,445.667 M 29.7287,445.667 L 32.7527,445.667 M 36.4477,433.909 L 46.1897,433.909 M 36.4477,436.932 L 46.1897,436.932 M 49.5537,428.866 L 51.2327,440.292 M 50.2257,428.866 L 51.5687,438.612 M 57.2797,428.866 L 51.2327,440.292 M 48.5457,428.866 L 51.9047,428.866 M 54.9287,428.866 L 58.2877,428.866"
       id="path92"
       style="fill:none;stroke:#000000;stroke-width:0.93333298;stroke-linejoin:round" />
    <path
       d="M 67.0217,434.245 L 66.6857,434.917 L 67.0217,435.589 L 67.6937,434.917 L 67.6937,434.245 L 66.6857,433.237 L 65.3427,432.897 L 63.9987,432.897 L 62.3187,433.237 L 61.3107,434.245 L 60.6397,435.924 L 60.6397,436.932 L 61.3107,438.612 L 62.3187,439.956 L 63.9987,440.292 L 65.0067,440.292 L 66.6857,439.956 L 67.6937,438.612 M 63.9987,432.897 L 62.6547,433.237 L 61.6467,434.245 L 61.3107,435.924 L 61.3107,436.932 L 61.6467,438.612 L 62.6547,439.956 L 63.9987,440.292 M 74.0807,432.897 L 72.4007,433.237 L 71.3927,434.245 L 70.7217,435.924 L 70.7217,436.932 L 71.3927,438.612 L 72.4007,439.956 L 74.0807,440.292 L 75.0887,440.292 L 76.7677,439.956 L 77.7757,438.612 L 78.4477,436.932 L 78.4477,435.924 L 77.7757,434.245 L 76.7677,433.237 L 75.0887,432.897 L 74.0807,432.897 L 73.0727,433.237 L 72.0647,434.245 L 71.3927,435.924 L 71.3927,436.932 L 72.0647,438.612 L 73.0727,439.956 L 74.0807,440.292 M 75.0887,440.292 L 76.4327,439.956 L 77.4397,438.612 L 77.7757,436.932 L 77.7757,435.924 L 77.4397,434.245 L 76.4327,433.237 L 75.0887,432.897 M 87.1827,433.909 L 87.5177,432.897 L 87.5177,434.917 L 87.1827,433.909 L 86.5107,433.237 L 85.5027,432.897 L 83.1507,432.897"
       id="path94"
       style="fill:none;stroke:#000000;stroke-width:0.93333298;stroke-linejoin:round" />
    <path
       d="M 83.1507,432.897 L 82.1427,433.237 L 81.8077,433.909 L 81.8077,434.917 L 82.1427,435.589 L 83.1507,435.924 L 85.8387,436.932 L 87.1827,437.604 L 87.5177,438.276 M 81.8077,434.245 L 82.1427,434.917 L 83.1507,435.589 L 85.8387,436.596 L 87.1827,436.932 L 87.5177,437.604 L 87.5177,439.284 L 87.1827,439.956 L 85.8387,440.292 L 83.8227,440.292 L 82.8147,439.956 L 82.1427,439.284 L 81.8077,438.276 L 81.8077,440.292 L 82.1427,439.284 M 91.2177,426.85 L 91.2177,443.987 M 91.8897,426.85 L 91.8897,443.987 M 91.2177,426.85 L 95.2487,426.85 M 91.2177,443.987 L 95.2487,443.987 M 98.9437,434.917 L 99.9517,433.909 L 101.632,433.237 L 100.96,432.897 L 99.9517,433.237 L 98.9437,434.917 L 98.2717,436.596 L 98.2717,438.276 L 98.9437,439.956 L 99.6157,440.292 L 100.624,440.292 L 101.632,439.956 L 102.64,438.276 L 103.311,436.596 M 98.2717,438.276 L 98.9437,439.284 L 99.6157,439.956 L 100.624,439.956 L 101.632,439.284 L 102.64,438.276 M 102.64,436.596 L 102.64,438.276 L 103.311,439.956 L 103.647,440.292 L 104.991,440.292 L 105.999,439.956 L 107.007,438.276 L 107.679,436.596 L 107.679,434.917 L 107.007,433.237 L 106.335,432.897 L 105.999,433.237 L 107.007,433.909 L 107.679,434.917 M 102.64,438.276 L 103.311,439.284 L 103.647,439.956 L 104.991,439.956 L 105.999,439.284 L 107.007,438.276"
       id="path96"
       style="fill:none;stroke:#000000;stroke-width:0.93333298;stroke-linejoin:round" />
    <path
       d="M 115.073,426.85 L 114.065,427.858 L 113.058,429.538 L 111.714,431.553 L 111.378,434.245 L 111.378,436.596 L 111.714,439.284 L 113.058,441.299 L 114.065,442.979 L 115.073,443.987 M 114.065,427.858 L 113.058,430.21 L 112.386,431.553 L 111.714,434.245 L 111.714,436.596 L 112.386,439.284 L 113.058,440.964 L 114.065,442.979 M 119.104,428.866 L 117.425,438.276 L 117.425,439.956 L 118.433,440.292 L 119.44,440.292 L 120.784,439.956 L 121.456,438.612 M 119.776,428.866 L 117.761,438.276 L 118.097,439.956 L 118.433,440.292 M 116.753,432.897 L 121.12,432.897"
       id="path98"
       style="fill:none;stroke:#000000;stroke-width:0.93333298;stroke-linejoin:round" />
    <path
       d="M 126.831,435.589 L 136.577,435.589 M 144.64,433.233 L 143.296,440.292 M 144.64,433.233 L 143.632,440.292 M 139.936,434.245 L 140.944,433.233 L 142.624,432.897 L 148.671,432.897 M 139.936,434.245 L 140.944,433.909 L 142.624,433.233 L 148.671,433.233"
       id="path100"
       style="fill:none;stroke:#000000;stroke-width:0.93333298;stroke-linejoin:round" />
    <path
       d="M 152.03,440.964 L 151.694,441.299 L 151.358,441.635 L 151.022,442.307 L 151.022,442.979 L 151.358,443.651 L 151.694,443.987 L 152.03,444.323 L 152.702,444.323 L 153.378,443.987 L 153.714,443.651 L 154.05,442.979 L 154.05,442.307 L 153.714,441.635 L 153.378,441.299 L 152.702,440.964 L 152.03,440.964 M 151.694,441.299 L 151.358,441.971 L 151.358,443.315 L 151.694,443.987 M 153.378,443.987 L 153.714,443.315 L 153.714,441.971 L 153.378,441.299 M 153.714,441.635 L 154.05,441.299 L 154.722,440.964 L 154.722,441.299 L 154.05,441.299 M 151.358,443.651 L 151.022,443.987 L 150.686,444.659 L 150.686,444.995 L 151.022,445.667 L 151.694,446.003 L 153.378,446.003 L 154.386,446.003 L 154.722,446.339 M 150.686,444.995 L 151.022,445.331 L 151.694,445.667 L 153.378,445.667 L 154.386,446.003 L 154.722,446.339 L 154.722,446.674 L 154.386,447.346 L 153.378,447.682 L 151.694,447.682 L 150.686,447.346 L 150.35,446.674 L 150.35,446.339 L 150.686,446.003 L 151.694,445.667 M 157.409,426.85 L 158.417,427.858 L 159.425,429.538 L 160.433,431.553 L 161.104,434.245 L 161.104,436.596 L 160.433,439.284 L 159.425,441.299 L 158.417,442.979 L 157.409,443.987 M 158.417,427.858 L 159.425,430.21 L 160.097,431.553 L 160.433,434.245 L 160.433,436.596 L 160.097,439.284 L 159.425,440.964 L 158.417,442.979 M 168.159,426.85 L 168.159,443.987 M 168.831,426.85 L 168.831,443.987 M 164.8,426.85 L 168.831,426.85 M 164.8,443.987 L 168.831,443.987"
       id="path102"
       style="fill:none;stroke:#000000;stroke-width:0.93333298;stroke-linejoin:round" />
    <path
       d="M 220.577,428.866 L 221.921,440.292 M 221.249,428.866 L 222.257,438.612 M 227.968,428.866 L 221.921,440.292 M 219.569,428.866 L 222.593,428.866 M 225.952,428.866 L 229.311,428.866"
       id="path104"
       style="fill:none;stroke:#000000;stroke-width:0.93333298;stroke-linejoin:round" />
    <path
       d="M 231.327,439.956 L 231.663,440.292 L 231.327,440.628 L 230.991,440.292 L 230.991,439.956 L 231.327,439.284 L 231.663,438.948 L 232.671,438.612 L 233.679,438.612 L 234.686,438.948 L 235.022,439.284 L 235.358,439.956 L 235.358,440.628 L 235.022,441.299 L 234.015,441.971 L 232.671,442.643 L 231.999,442.979 L 231.327,443.651 L 230.991,444.659 L 230.991,445.667 M 233.679,438.612 L 234.351,438.948 L 234.686,439.284 L 235.022,439.956 L 235.022,440.628 L 234.686,441.299 L 233.679,441.971 L 232.671,442.643 M 230.991,444.995 L 231.327,444.659 L 231.999,444.659 L 233.343,445.331 L 234.351,445.331 L 235.022,444.995 L 235.358,444.659 M 231.999,444.659 L 233.343,445.667 L 234.686,445.667 L 235.022,445.331 L 235.358,444.659 L 235.358,443.987 M 238.722,433.909 L 248.128,433.909 M 238.722,436.932 L 248.128,436.932 M 251.823,428.866 L 253.167,440.292 M 252.495,428.866 L 253.503,438.612 M 259.218,428.866 L 253.167,440.292 M 250.815,428.866 L 253.839,428.866 M 257.198,428.866 L 260.561,428.866"
       id="path106"
       style="fill:none;stroke:#000000;stroke-width:0.93333298;stroke-linejoin:round" />
    <path
       d="M 269.296,434.245 L 268.624,434.917 L 269.296,435.589 L 269.968,434.917 L 269.968,434.245 L 268.624,433.237 L 267.616,432.897 L 265.936,432.897 L 264.593,433.237 L 263.249,434.245 L 262.913,435.924 L 262.913,436.932 L 263.249,438.612 L 264.593,439.956 L 265.936,440.292 L 267.28,440.292 L 268.624,439.956 L 269.968,438.612 M 265.936,432.897 L 264.929,433.237 L 263.921,434.245 L 263.249,435.924 L 263.249,436.932 L 263.921,438.612 L 264.929,439.956 L 265.936,440.292 M 276.351,432.897 L 274.671,433.237 L 273.663,434.245 L 272.991,435.924 L 272.991,436.932 L 273.663,438.612 L 274.671,439.956 L 276.351,440.292 L 277.358,440.292 L 279.042,439.956 L 280.05,438.612 L 280.722,436.932 L 280.722,435.924 L 280.05,434.245 L 279.042,433.237 L 277.358,432.897 L 276.351,432.897 L 275.343,433.237 L 273.999,434.245 L 273.663,435.924 L 273.663,436.932 L 273.999,438.612 L 275.343,439.956 L 276.351,440.292 M 277.358,440.292 L 278.366,439.956 L 279.378,438.612 L 280.05,436.932 L 280.05,435.924 L 279.378,434.245 L 278.366,433.237 L 277.358,432.897 M 289.12,433.909 L 289.792,432.897 L 289.792,434.917 L 289.12,433.909 L 288.784,433.237 L 287.776,432.897 L 285.425,432.897 L 284.417,433.237 L 283.745,433.909 L 283.745,434.917 L 284.417,435.589 L 285.425,435.924 L 288.112,436.932 L 289.12,437.604 L 289.792,438.276 M 283.745,434.245 L 284.417,434.917 L 285.425,435.589 L 288.112,436.596 L 289.12,436.932 L 289.792,437.604 L 289.792,439.284 L 289.12,439.956 L 288.112,440.292 L 286.097,440.292 L 285.089,439.956 L 284.417,439.284 L 283.745,438.276 L 283.745,440.292 L 284.417,439.284 M 293.487,426.85 L 293.487,443.987 M 294.159,426.85 L 294.159,443.987 M 293.487,426.85 L 297.183,426.85 M 293.487,443.987 L 297.183,443.987"
       id="path108"
       style="fill:none;stroke:#000000;stroke-width:0.93333298;stroke-linejoin:round" />
    <path
       d="M 301.218,434.917 L 302.226,433.909 L 303.905,433.237 L 303.233,432.897 L 302.226,433.237 L 301.218,434.917 L 300.546,436.596 L 300.546,438.276 L 301.218,439.956 L 301.554,440.292 L 302.561,440.292 L 303.905,439.956 L 304.913,438.276 L 305.249,436.596 M 300.546,438.276 L 301.218,439.284 L 301.554,439.956 L 302.561,439.956 L 303.905,439.284 L 304.913,438.276 M 304.913,436.596 L 304.913,438.276 L 305.249,439.956 L 305.921,440.292 L 306.929,440.292 L 308.272,439.956 L 309.28,438.276 L 309.616,436.596 L 309.616,434.917 L 309.28,433.237 L 308.608,432.897 L 308.272,433.237 L 309.28,433.909 L 309.616,434.917 M 304.913,438.276 L 305.249,439.284 L 305.921,439.956 L 306.929,439.956 L 308.272,439.284 L 309.28,438.276"
       id="path110"
       style="fill:none;stroke:#000000;stroke-width:0.93333298;stroke-linejoin:round" />
    <path
       d="M 317.343,426.85 L 316.335,427.858 L 314.991,429.538 L 313.983,431.553 L 313.647,434.245 L 313.647,436.596 L 313.983,439.284 L 314.991,441.299 L 316.335,442.979 L 317.343,443.987 M 316.335,427.858 L 314.991,430.21 L 314.655,431.553 L 313.983,434.245 L 313.983,436.596 L 314.655,439.284 L 314.991,440.964 L 316.335,442.979 M 321.378,428.866 L 319.694,438.276 L 319.694,439.956 L 320.702,440.292 L 321.714,440.292 L 323.058,439.956 L 323.729,438.612 M 322.05,428.866 L 320.03,438.276 L 320.366,439.956 L 320.702,440.292 M 319.022,432.897 L 323.393,432.897"
       id="path112"
       style="fill:none;stroke:#000000;stroke-width:0.93333298;stroke-linejoin:round" />
    <path
       d="M 329.104,435.589 L 338.847,435.589 M 346.913,433.237 L 345.233,440.292 M 346.913,433.237 L 345.905,440.292 M 342.21,434.245 L 343.218,433.237 L 344.897,432.897 L 350.608,432.897 M 342.21,434.245 L 343.218,433.909 L 344.897,433.237 L 350.608,433.237"
       id="path114"
       style="fill:none;stroke:#000000;stroke-width:0.93333298;stroke-linejoin:round" />
    <path
       d="M 354.64,438.612 L 353.632,438.948 L 352.96,439.956 L 352.624,441.635 L 352.624,442.643 L 352.96,444.323 L 353.632,445.331 L 354.64,445.667 L 355.311,445.667 L 356.319,445.331 L 356.991,444.323 L 357.327,442.643 L 357.327,441.635 L 356.991,439.956 L 356.319,438.948 L 355.311,438.612 L 354.64,438.612 L 353.968,438.948 L 353.632,439.284 L 353.296,439.956 L 352.96,441.635 L 352.96,442.643 L 353.296,444.323 L 353.632,444.995 L 353.968,445.331 L 354.64,445.667 M 355.311,445.667 L 355.983,445.331 L 356.319,444.995 L 356.655,444.323 L 356.991,442.643 L 356.991,441.635 L 356.655,439.956 L 356.319,439.284 L 355.983,438.948 L 355.311,438.612 M 360.015,426.85 L 361.022,427.858 L 362.03,429.538 L 363.042,431.553 L 363.714,434.245 L 363.714,436.596 L 363.042,439.284 L 362.03,441.299 L 361.022,442.979 L 360.015,443.987 M 361.022,427.858 L 362.03,430.21 L 362.702,431.553 L 363.042,434.245 L 363.042,436.596 L 362.702,439.284 L 362.03,440.964 L 361.022,442.979 M 370.768,426.85 L 370.768,443.987 M 371.104,426.85 L 371.104,443.987 M 367.409,426.85 L 371.104,426.85 M 367.409,443.987 L 371.104,443.987"
       id="path116"
       style="fill:none;stroke:#000000;stroke-width:0.93333298;stroke-linejoin:round" />
    <path
       d="M 205.12,462.803 L 206.8,473.889 M 205.792,462.803 L 207.136,472.546 M 212.847,462.803 L 206.8,473.889 M 204.112,462.803 L 207.472,462.803 M 210.495,462.803 L 213.854,462.803"
       id="path118"
       style="fill:none;stroke:#000000;stroke-width:0.93333298;stroke-linejoin:round" />
    <path
       d="M 216.546,473.553 L 217.218,473.217 L 218.226,472.546 L 218.226,479.268 M 217.89,472.881 L 217.89,479.268 M 216.546,479.268 L 219.569,479.268 M 222.593,462.803 L 223.936,473.889 M 222.929,462.803 L 224.272,472.546 M 229.983,462.803 L 223.936,473.889 M 221.249,462.803 L 224.608,462.803 M 227.968,462.803 L 230.991,462.803 M 232.671,473.553 L 233.007,473.889 L 232.671,474.225 L 232.335,473.889 L 232.335,473.553 L 233.007,473.217 L 233.343,472.881 L 234.351,472.546 L 235.694,472.546 L 236.366,472.881 L 236.702,473.217 L 237.042,473.553 L 236.702,474.225 L 236.366,474.897 L 235.358,475.573 L 233.679,476.245 L 232.671,476.581 L 231.999,477.253 L 231.663,478.26 L 231.327,479.268 M 235.694,472.546 L 236.03,472.881 L 236.366,473.217 L 236.702,473.553 L 236.366,474.225 L 236.03,474.897 L 235.022,475.573 L 233.679,476.245 M 231.327,478.596 L 231.999,478.26 L 232.671,478.26 L 234.015,478.932 L 235.022,478.932 L 235.694,478.596 L 236.03,478.26 M 232.671,478.26 L 234.015,479.268 L 235.358,479.268 L 235.694,478.932 L 236.03,478.26 L 236.03,477.589"
       id="path120"
       style="fill:none;stroke:#000000;stroke-width:0.93333298;stroke-linejoin:round" />
  </g>
</svg>
